<svg xmlns="http://www.w3.org/2000/svg" width="512" height="512" id="location">
  <path fill="#B3B3B3" d="M436.581 432.662c-15.521 2.488-30.697 6.69-46.028 10.105-6.859 1.538-13.983 2.017-20.895 3.334-4.056.766-8.272 2.186-12.453 2.768 1.281-.405 2.437-.766 3.238-1.067 5.365-2.061 10.959-3.467 16.457-5.101 9.067-2.693 18.605-4.025 26.628-9.369 2.208-1.472 1.656-5.807-1.486-5.482-9.046.941-18.282 2.171-27.254 3.724-10.068 1.752-19.857 4.806-29.903 6.631l-4.004.729c6.234-1.767 12.468-3.57 18.569-5.756 3.047-1.09 8.456-2.488 7.757-6.697-.213-1.252-1.634-2.201-2.841-2.164-10.054.279-19.923 3.201-29.844 4.681-5.057.751-10.112 1.442-15.147 2.193 1.223-.633 2.245-1.428 2.797-2.443.942-1.767-.191-4.695-2.546-4.431-21.226 2.422-42.143 6.521-63.008 10.922 2.671-1.258 5.174-2.789 7.397-4.725 1.987-1.715.368-5.034-2.075-5.02-9.767.059-19.673 2.098-29.389 3.157-11.076 1.2-22.072 3.076-32.957 5.395-3.791.803-7.61 1.531-11.43 2.253a615.38 615.38 0 0 0 12.159-3.843c3.643-1.207 2.134-6.344-1.568-5.682-8.368 1.494-16.935 1.899-25.34 3.246-8.95 1.428-17.649 4.165-26.466 6.175-2.421.552-4.85 1.097-7.279 1.641 6.05-1.986 12.055-4.099 17.789-6.859 2.65-1.266 1.369-5.63-1.486-5.482-5.917.302-11.511 2.369-17.267 3.636-6.3 1.391-12.541 2.664-18.768 4.276.169-1.605-.758-3.29-2.819-3.202-7.779.331-16.133 2.87-23.493 5.313-6.469 2.164-14.337 3.018-19.791 7.323-1.722 1.347-.736 4.512 1.295 4.924 4.18.832 8.154-.625 12.158-1.736 6.984-1.943 14.352-3.224 21.513-4.343a104.44 104.44 0 0 0 3.017-.529c-2.436.868-4.872 1.722-7.337 2.494-4.254 1.332-8.523 2.334-12.394 4.615-1.708 1.016-2.112 4.188 0 5.078 5.932 2.518 12.203-.633 17.973-2.664 9.465-3.312 20.188-4.887 29.977-7.088 5.425-1.215 10.827-2.518 16.244-3.798-9.097 2.834-18.127 5.852-26.989 9.347-2.9 1.148-2.774 5.918.78 5.785 4.865-.176 9.45-1.273 14.064-2.76a173.815 173.815 0 0 1 16.626-4.445c11.268-2.451 22.558-4.836 33.937-6.697 11.967-1.965 23.699-4.77 35.769-6.241 5.152-.633 10.304-1.347 15.448-1.958-.331.081-.685.162-1.008.221-6.418 1.178-12.651 3.165-19.077 4.328-5.652 1.03-11.489 3.827-16.958 5.652-5.174 1.729-10.752 2.539-15.529 5.24-3.076 1.736-.868 5.925 2.267 5.38 28.49-4.938 56.627-11.901 85.021-17.333-5.807 1.561-11.621 3.136-17.303 5.049-3.032 1.023-6.027 2.135-9.031 3.231-5.329 1.045-10.627 2.325-15.036 4.851-2.966 1.692-.942 6.152 2.259 5.38 5.108-1.229 10.054-2.951 14.978-4.732 3.812-.707 7.617-1.311 11.018-2.193 10.856-2.841 21.808-5.307 32.877-7.198 10.429-1.788 20.726-3.923 31.228-5.387.331-.045.655-.096.972-.147-14.955 4.231-29.616 9.067-44.365 13.976-2.223.744-3.143 4.195-.699 5.388 4.482 2.179 12.122-1.288 16.567-2.399 10.959-2.737 22.094-4.57 33.208-6.587 10.583-1.921 21.049-4.239 31.544-6.373-5.27 1.773-10.643 3.187-15.86 5.27-2.893 1.155-6.33 1.751-8.361 4.29-1.472 1.841-.861 4.033 1.296 4.917 5.534 2.267 11.224 1.361 16.876 0 8.677-2.091 17.428-3.481 26.289-4.607 7.758-.979 15.552-3.496 23.154-5.321 8.582-2.046 17.186-3.981 25.907-5.373 3.738-.608 2.141-6.274-1.569-5.686z"></path>
  <path fill="#1F8AFF" d="M136.623 179.306c-.641-1.604-3.246-.905-2.613.714 1.325 3.29 2.885 7.897 2.922 11.43.044 5.579-2.672 10.974-2.966 16.589-.088 1.737 2.62 1.722 2.701 0 .287-5.667 2.451-10.959 2.966-16.589.353-3.893-1.605-8.618-3.01-12.144zm24.368 8.464c.051-1.745-2.65-1.745-2.709 0-.228 7.345-2.09 14.359-3.562 21.52-1.251 6.116-.486 12.799-.486 19.011 0 1.737 2.701 1.737 2.701 0 0-7.824-.257-15.463 1.42-23.147 1.267-5.785 2.445-11.466 2.636-17.384zm16.398 11.474c-2.899 5.365-3.894 11.047-4.681 17.045-1.178 8.994-3.4 17.767-3.614 26.871-.037 1.745 2.657 1.745 2.701 0 .184-7.544 1.862-14.705 2.988-22.116 1.089-7.08 1.472-13.999 4.938-20.438.825-1.531-1.508-2.9-2.332-1.362zm22.778-3.371c-.589 5.159-1.928 4.144-2.657 7.75-.655 3.312-1.295 6.624-1.854 9.958-.905 5.395-1.163 10.856-2.061 16.243-1.759 10.547-2.885 20.218-2.885 30.896 0 1.744 2.701 1.744 2.701 0 0-11.981 1.634-23.235 3.599-35.033.905-5.41 1.119-10.878 2.12-16.302.861-4.681 3.202-8.795 3.739-13.513.198-1.728-2.51-1.706-2.702.001zm20.66-29.329c-5.196 6.19-4.011 14.455-5.255 21.925-2.134 12.813-4.261 25.605-6.396 38.404-1.869 11.18-4.695 22.102-5.836 33.406-.78 7.684-2.723 18.002 2.627 24.369 1.126 1.332 3.025-.589 1.914-1.914-3.644-4.335-2.333-9.899-2.274-15.065.066-5.542.766-11.084 1.604-16.545 1.487-9.605 3.827-19.062 5.424-28.652l5.123-30.72c1.185-7.095.199-17.597 4.982-23.294 1.119-1.325-.795-3.246-1.913-1.914zm21.27-19.666c-2.09 5.491-3.834 10.098-4.909 15.897-.89 4.821-.522 9.921-.574 14.793-.169 13.188-1.376 26.407-4.232 39.294-5.174 23.294-14.823 48.406-10.547 72.591.302 1.715 2.907.986 2.598-.722-4.284-24.258 5.844-49.951 11.04-73.348 2.399-10.841 3.29-22.021 3.717-33.09.221-5.726 0-11.452.412-17.156.442-6.182 2.937-11.827 5.101-17.546.617-1.625-1.995-2.324-2.606-.713zm24.272-19.908c-.221 17.355-4.644 34.275-7.322 51.343-2.665 16.957-5.38 33.922-8.553 50.798-3.135 16.744-7.934 33.038-10.723 49.87-1.273 7.654-3.128 15.691-3.128 23.471v24.479c0 1.736 2.708 1.736 2.708 0v-24.479c0-9.185 2.333-18.818 3.894-27.85 2.877-16.78 7.713-33.083 10.797-49.826 3.12-16.869 5.74-33.833 8.397-50.776 2.466-15.699 6.433-31.051 6.631-47.03.023-1.744-2.678-1.737-2.701 0zm20.263-12.151c.198-1.737-2.51-1.722-2.701 0-.442 3.856-2.694 6.205-2.694 9.862 0 5.159-.544 9.921-1.538 14.992-1.936 9.855-2.862 20.188-5.896 29.764-2.494 7.831-3.672 16.059-4.739 24.177-1.303 9.98-2.995 19.923-3.879 29.955-1.692 19.298-5.424 38.33-8.346 57.518-1.362 8.928-3.025 17.737-3.01 26.797.022 8.655 1.016 17.223.552 25.87-.729-.081-1.523.331-1.523 1.273v1.354a1.37 1.37 0 0 0 1.354 1.354h1.354c.78 0 1.28-.625 1.339-1.354.794-8.715 0-17.399-.316-26.113-.383-10.422 1.664-20.63 3.224-30.882 2.841-18.665 6.579-37.021 8.073-55.817 1.582-19.732 5.63-39.022 9.804-58.298 2.148-9.928 3.592-19.997 5.638-29.955.735-3.569.604-6.984.604-10.635-.001-3.172 2.332-6.587 2.7-9.862zm18.914-48.642c0 26.518-3.201 51.887-10.208 77.492-6.668 24.339-12.497 48.781-15.205 73.916-2.62 24.28-9.612 48.354-9.723 72.87-.052 12.35-2.075 24.685-4.762 36.726-2.215 9.921-5.078 19.952-5.844 30.146a1.318 1.318 0 0 0-.191.669v2.701c0 1.744 2.657 1.737 2.701 0 .324-12.732 4.416-25.222 6.984-37.623 2.216-10.724 3.68-21.668 3.812-32.619.309-24.582 7.367-48.487 9.723-72.87 2.568-26.569 9.266-52.646 16.522-78.265 6.764-23.905 8.891-48.406 8.898-73.143.002-1.744-2.707-1.744-2.707 0zm29.05 10.989c-7.471 4.688-9.678 11.26-10.797 19.695-1.884 14.219-3.938 28.549-6.926 42.584-2.789 13.16-4.025 26.26-6.094 39.538-2.068 13.27-4.836 26.613-7.279 39.854-5.005 27.048-15.779 52.667-19.187 80.017-.803 6.454-1.583 13.005-1.811 19.496-.214 6.102-2.474 11.806-2.731 17.943-.228 5.594-2.406 10.304-3.694 15.604-.942 3.871-1.847 9.038-3.657 13.071-.795-.398-2.002-.03-2.002 1.141v2.701c0 1.464 1.751 1.678 2.524.677 2.554-3.327 2.7-7.315 4.188-11.128 1.648-4.247 2.907-9.09 4.048-13.513 1.347-5.188.618-10.636 1.929-15.751 1.553-6.034 2.061-11.746 2.635-17.928 1.266-13.719 3.039-27.232 7.006-40.458 4.137-13.777 7.854-27.606 11.306-41.561 6.271-25.304 8.993-51.475 12.835-77.206 1.958-13.042 5.226-25.943 7.228-39.022 1.752-11.408.986-26.606 11.835-33.421 1.47-.92.115-3.261-1.356-2.333zm-31.354 237.996c-5.063 6.455-5.682 16.905-7.44 24.699-2.598 11.489-7.426 22.264-9.119 33.988-.25 1.7 2.355 2.437 2.605.714 1.377-9.494 4.615-18.414 7.463-27.533 1.347-4.327 2.193-8.817 3.18-13.24 1.141-5.138 1.906-12.497 5.218-16.715 1.067-1.361-.832-3.282-1.907-1.913zm7.714 23.92c-.508 5.998-3.555 11.746-4.983 17.575-1.641 6.727-4.445 13.071-5.784 19.894-.331 1.7 2.274 2.429 2.612.721 1.325-6.808 3.901-13.232 5.777-19.9 1.7-5.977 4.549-12.078 5.071-18.289.148-1.731-2.545-1.724-2.693-.001zm5.8 19.312c-6.875 8.715-4.851 21.631-8.457 31.67-.589 1.642 2.024 2.348 2.613.714 3.37-9.413 1.354-22.366 7.75-30.478 1.067-1.347-.832-3.268-1.906-1.906zm30.72-257.449c-5.284 15.066-6.227 30.168-8.472 45.808-1.185 8.258-2.531 16.471-5.041 24.442-2.547 8.111-2.613 17.458-4.695 25.789-3.275 13.123-5.683 26.878-7.419 40.281-1.119 8.736-3.864 17.134-5.446 25.803-1.244 6.838-.045 15.007-.045 21.977 0 1.737 2.701 1.737 2.701 0 0-7.668-.986-16.14.397-23.691 1.333-7.323 4.63-14.8 5.013-22.249.316-6.396 1.979-13.24 3.047-19.599 1.236-7.264 2.414-14.683 4.357-21.8 2.075-7.588 3.201-15.441 4.334-23.206 1.186-8.184 3.776-16.214 5.027-24.457 2.48-16.412 3.305-32.553 8.847-48.384.589-1.648-2.031-2.355-2.605-.714zm18.915 16.214c-3.746 10.083-.839 22.728-1.811 33.318-1.148 12.364-5.55 24.185-7.14 36.483-1.567 12.173-3.179 24.03-6.513 35.872-2.915 10.348-5.852 21.711-6.197 32.486-.059 1.745 2.642 1.737 2.701 0 .354-11.216 3.665-23.139 6.712-33.921 2.944-10.488 4.607-21.167 5.689-32.008 1.214-12.203 5.292-23.993 7.095-36.123.772-5.13.772-10.259.772-15.441 0-6.417-.972-13.858 1.303-19.953.604-1.64-2.008-2.332-2.611-.713zm12.114 15.213c0 17.568-1.729 34.724-4.387 52.079-2.664 17.479-9.111 34.113-11.775 51.6-.266 1.7 2.34 2.429 2.605.714 2.671-17.487 8.787-34.172 11.783-51.585 3.01-17.501 4.481-35.07 4.481-52.807.001-1.745-2.707-1.745-2.707-.001zm17.56 12.166c-.221 15.043-4.629 29.145-7.095 43.857-1.155 6.889-4.019 13.483-6.271 20.048-2.083 6.101-2.274 13.844-6.507 18.9-1.104 1.325.795 3.246 1.914 1.906 3.467-4.136 4.217-8.861 5.343-14.013 1.789-8.125 5.579-15.757 7.64-23.831 3.842-15.103 7.448-31.243 7.677-46.868.03-1.751-2.671-1.743-2.701.001zm18.915 13.505c-1.457 11.658-1.332 25.384-5.594 36.365-2.017 5.167-4.71 10.083-6.962 15.146-1.178 2.665-.751 9.781-4.019 10.687-1.679.464-.965 3.077.721 2.605 2.562-.707 3.415-2.996 4.195-5.351.993-2.952.913-5.38 2.26-8.427 1.435-3.209 3.032-6.359 4.512-9.538 5.895-12.711 5.873-27.718 7.595-41.488.207-1.721-2.487-1.699-2.708.001z"></path>
  <g fill="#0077BF">
    <path d="M323.041 408.176c-2.701 0-5.557-.552-8.494-1.634-8.618-3.172-17.398-9.097-25.42-17.111-4.505-4.512-9.318-8.825-13.955-13.005-4.6-4.122-9.354-8.391-13.756-12.784-10.892-10.907-21.719-22.227-32.191-33.179-8.81-9.207-17.914-18.73-27.026-27.967-10.37-10.496-20.542-21.564-30.381-32.266-10.701-11.658-21.771-23.699-33.156-35.078-4.062-4.078-8.346-8.111-12.482-12.004-5.719-5.387-11.621-10.952-17.045-16.685-5.829-6.16-12.011-13.527-13.704-21.476-1.612-7.625 6.845-16.523 13.366-20.409 2.009-1.2 4.445-1.811 7.227-1.811 3.842 0 8.457 1.17 13.358 3.393 4.475 2.031 8.736 4.71 12.873 7.323 4.96 3.128 10.09 6.366 15.647 8.516 3.555 1.369 6.749 3.253 10.127 5.248 1.826 1.067 3.643 2.142 5.527 3.135 1.855.979 3.371 2.296 4.975 3.702 1.111.964 2.252 1.958 3.533 2.841l1.111.772.957-.964c15.618-15.61 31.206-31.67 46.279-47.206 14.308-14.75 29.116-30.014 43.917-44.859l.875-.875-.618-1.075c-5.549-9.715-5.372-22.462.442-32.472 5.306-9.141 14.204-14.381 24.42-14.381 1.722 0 3.503.147 5.284.441 15.44 2.547 25.818 12.924 36.799 23.905l.56.559c7.095 7.095 14.146 14.47 20.961 21.601 6.838 7.146 13.903 14.536 21.027 21.66l2.09 2.09c12.409 12.401 25.245 25.23 36.211 38.743l1.921 2.355c8.104 9.892 15.75 19.239 13.852 32.207-2.474 16.825-14.492 28.137-29.926 28.137-4.725 0-9.457-1.075-14.042-3.202l-1.038-.479-.802.81c-9.517 9.693-18.812 19.879-27.813 29.712-10.039 10.98-20.424 22.33-31.125 33.046-5.696 5.689-11.18 11.644-16.479 17.398-4.283 4.659-8.722 9.473-13.226 14.102l-.965 1.001.832 1.104a179.463 179.463 0 0 1 3.194 4.445c2.2 3.128 4.482 6.358 7.161 9.273l1.28 1.376c3.312 3.555 7.441 7.993 9.399 12.107 2.664 5.601 4.725 11.628 6.712 17.45 1.722 5.012 3.488 10.186 5.652 15.139 3.209 7.36 3.018 14.985-.53 20.409-2.922 4.464-7.676 6.922-13.395 6.922zM119.805 176.701c-2.826 0-9.214 1.03-10.966 4.225-.692 1.266-.589 2.716.28 4.077 4.335 6.756 9.303 12.556 16.103 18.783 18.738 17.178 36.299 36.225 53.286 54.654 10.635 11.555 21.653 23.493 32.847 34.871 6.808 6.933 13.586 14.131 20.144 21.086 7.581 8.06 15.426 16.405 23.412 24.384 6.624 6.624 13.557 13.071 20.262 19.305 6.676 6.204 13.587 12.63 20.166 19.209 4.961 4.968 14.22 14.234 22.301 16.641 1.214.354 2.26.53 3.194.53 2.193 0 3.319-1.001 3.886-1.854 2.061-3.084.008-8.663-2.679-15.103-.493-1.178-.913-2.187-1.155-2.907-5.66-16.854-15.229-30.654-27.828-46.19-1.494-1.84-1.943-4.085-1.266-6.322l.235-.795-.501-.655c-1.619-2.119-2.348-5.388.472-8.214 6.064-6.094 11.944-12.445 17.634-18.591 5.858-6.329 11.923-12.88 18.179-19.143 10.099-10.091 19.828-20.792 29.241-31.147 8.279-9.104 16.824-18.518 25.575-27.445l.501-.522-.037-.714c-.088-1.479.566-3.077 1.788-4.379 1.443-1.516 3.46-2.436 5.402-2.436 1.553 0 2.996.552 4.291 1.626 3.548 2.951 9.877 5.939 15.095 5.939 1.494 0 2.856-.243 4.041-.714 2.12-.839 3.894-2.774 5.454-4.482.699-.758 1.368-1.494 2.023-2.075 9.744-8.574 2.304-19.57-2.62-26.849l-1.126-1.686c-3.187-4.806-7.271-9.053-11.224-13.167-2.753-2.863-5.601-5.821-8.06-8.905-5.851-7.309-12.562-13.933-19.047-20.35a2068.44 2068.44 0 0 1-4.21-4.18c-7.646-7.654-15.265-15.588-22.632-23.272-7.359-7.669-14.962-15.603-22.624-23.257l-1.611-1.634c-6.242-6.293-13.999-14.124-23.324-15.647a18.649 18.649 0 0 0-3.128-.265c-7.455 0-14.233 4.386-17.266 11.172-2.782 6.241-1.627 13.116 3.091 18.393 3.076 3.437 1.222 6.984.589 8l-.229.354-.021.427c-.089 1.472-.707 2.797-1.862 3.952-15.654 15.662-31.272 31.758-46.367 47.324-15.088 15.551-30.684 31.633-46.301 47.258-1.251 1.251-2.671 1.884-4.225 1.884-.382 0-.788-.044-1.192-.132l-.847-.169-.611.604c-1.45 1.421-3.253 2.201-5.079 2.201-.897 0-1.81-.191-2.708-.552-3.982-1.634-7.375-4.276-10.966-7.081-3.371-2.62-6.852-5.351-10.944-7.227-1.464-.677-2.944-1.244-4.409-1.811-2.973-1.148-5.777-2.223-8.279-4.129-.817-.625-1.664-1.325-2.532-2.039-2.546-2.098-5.424-4.482-8.5-5.66-1.523-.588-3.018-1.332-4.592-2.112-2.164-1.074-4.387-2.2-6.742-2.885-.457-.143-1.039-.202-1.782-.202z"></path>
    <path d="M110.789 414.947c-7.33 0-13.961-3.01-19.717-8.942a6.617 6.617 0 0 1-1.759-3.378l-.044-.199-.081-.184c-6.617-13.977.228-31.441 20.343-51.932 2.885-2.937 5.167-6.219 7.375-9.398 1.7-2.429 3.444-4.945 5.432-7.228 3.511-4.055 7.448-7.809 11.253-11.43 1.965-1.884 3.931-3.761 5.859-5.689l40.126-40.126c1.273-1.266 2.701-1.913 4.269-1.913 2.591 0 5.255 1.898 6.337 4.504.567 1.361 1.126 4.026-1.428 6.587-5.888 5.881-12.269 11.843-18.437 17.612-15.522 14.499-31.581 29.491-43.482 46.463-4.541 6.499-10.709 13.653-18.333 21.263-4.6 4.607-11.01 18.084-8.066 24.898v.28l.427.464a7.555 7.555 0 0 1 1.192 1.67l.169.332.294.221c2.856 2.178 6.058 3.282 9.517 3.282 13.925 0 28.762-17.604 39.596-30.463 2.93-3.459 5.447-6.454 7.404-8.405 3.849-3.849 7.75-7.69 11.658-11.532 14.425-14.183 29.344-28.851 42.128-44.822 1.155-1.449 2.502-2.186 3.989-2.186 2.208 0 4.578 1.715 5.755 4.173.582 1.207 1.664 4.35-.824 7.448-11.577 14.47-25.067 27.747-38.117 40.567-11.209 11.011-22.793 22.396-33.171 34.548-12.587 14.72-27.41 23.515-39.664 23.515z"></path>
  </g>
</svg>
