<svg xmlns="http://www.w3.org/2000/svg" viewBox="0 0 512 512" id="car-key">
  <path fill="#57a4ff" d="M257.5,119.29c-1.96-1.05-4.33-.93-6.17,.31l-25.07,16.82h-17.76c-3.32,0-6,2.69-6,6v32.16c0,3.31,2.68,6,6,6h17.76l25.07,16.82c1.01,.68,2.17,1.02,3.34,1.02,.97,0,1.94-.24,2.83-.71,1.95-1.04,3.17-3.08,3.17-5.29V124.58c0-2.22-1.22-4.25-3.17-5.29Zm-35.42,49.29h-7.58v-20.16h7.58v20.16Zm26.59,12.59l-14.59-9.79v-25.76l14.59-9.79v45.34Zm32.25-43.2c-2.35-2.34-6.14-2.35-8.49,0-2.34,2.34-2.34,6.14,0,8.48,3.31,3.31,5.14,7.71,5.14,12.39s-1.83,9.09-5.14,12.4c-2.34,2.34-2.34,6.14,0,8.48,1.18,1.17,2.71,1.76,4.25,1.76,1.53,0,3.07-.59,4.24-1.76,5.58-5.58,8.65-12.99,8.65-20.88s-3.07-15.3-8.65-20.87Zm16.91-7.32c-2.35-2.34-6.15-2.34-8.49,0-2.34,2.35-2.34,6.14,0,8.49,5.26,5.26,8.16,12.26,8.16,19.7s-2.9,14.45-8.16,19.71c-2.34,2.34-2.34,6.14,0,8.49,1.17,1.17,2.71,1.75,4.24,1.75,1.54,0,3.07-.58,4.25-1.75,7.53-7.53,11.67-17.55,11.67-28.2s-4.14-20.66-11.67-28.19Zm24.18-92.88c-43.8-4.36-88.22-4.36-132.02,0-3.3,.33-5.71,3.27-5.38,6.57,.33,3.3,3.26,5.7,6.57,5.37,43.01-4.28,86.63-4.28,129.64,0,.21,.02,.41,.03,.61,.03,3.04,0,5.65-2.31,5.96-5.4,.33-3.3-2.08-6.24-5.38-6.57Zm-45.24,356.06v-7.92c0-11.45-9.32-20.77-20.77-20.77s-20.77,9.32-20.77,20.77v7.92c-6.53,1.07-11.53,6.73-11.53,13.55v23.68c0,7.58,6.17,13.75,13.76,13.75h37.08c7.59,0,13.75-6.17,13.75-13.75v-23.68c0-6.82-4.99-12.48-11.52-13.55Zm-29.54-7.92c0-4.84,3.93-8.77,8.77-8.77s8.77,3.93,8.77,8.77v7.72h-17.54v-7.72Zm29.06,45.15c0,.95-.8,1.75-1.75,1.75h-37.08c-.95,0-1.76-.8-1.76-1.75v-23.68c0-.95,.81-1.75,1.76-1.75h37.08c.95,0,1.75,.8,1.75,1.75v23.68Zm-1.75-160.52h-25.61v-7.72c0-4.84,3.93-8.77,8.77-8.77,2.61,0,5.07,1.16,6.75,3.2,2.12,2.55,5.9,2.9,8.45,.78,2.55-2.11,2.9-5.9,.79-8.45-3.98-4.79-9.8-7.53-15.99-7.53-11.45,0-20.77,9.32-20.77,20.77v7.75c-7.34,.28-13.23,6.32-13.23,13.73v23.67c0,7.59,6.17,13.75,13.76,13.75h37.08c7.59,0,13.76-6.16,13.76-13.75v-23.67c0-7.59-6.17-13.76-13.76-13.76Zm1.76,37.43c0,.95-.81,1.75-1.76,1.75h-37.08c-.95,0-1.76-.8-1.76-1.75v-23.67c0-.95,.81-1.76,1.76-1.76h37.08c.95,0,1.76,.81,1.76,1.76v23.67Zm21.53-177.32c-2.35-2.34-6.15-2.34-8.49,0-2.34,2.35-2.34,6.14,0,8.49,5.26,5.26,8.16,12.26,8.16,19.7s-2.9,14.45-8.16,19.71c-2.34,2.34-2.34,6.14,0,8.49,1.17,1.17,2.71,1.75,4.24,1.75,1.54,0,3.07-.58,4.25-1.75,7.53-7.53,11.67-17.55,11.67-28.2s-4.14-20.66-11.67-28.19Zm-16.91,7.32c-2.35-2.34-6.14-2.35-8.49,0-2.34,2.34-2.34,6.14,0,8.48,3.31,3.31,5.14,7.71,5.14,12.39s-1.83,9.09-5.14,12.4c-2.34,2.34-2.34,6.14,0,8.48,1.18,1.17,2.71,1.76,4.25,1.76,1.53,0,3.07-.59,4.24-1.76,5.58-5.58,8.65-12.99,8.65-20.88s-3.07-15.3-8.65-20.87Zm-23.42-18.68c-1.96-1.05-4.33-.93-6.17,.31l-25.07,16.82h-17.76c-3.32,0-6,2.69-6,6v32.16c0,3.31,2.68,6,6,6h17.76l25.07,16.82c1.01,.68,2.17,1.02,3.34,1.02,.97,0,1.94-.24,2.83-.71,1.95-1.04,3.17-3.08,3.17-5.29V124.58c0-2.22-1.22-4.25-3.17-5.29Zm-35.42,49.29h-7.58v-20.16h7.58v20.16Zm26.59,12.59l-14.59-9.79v-25.76l14.59-9.79v45.34Zm8.83-61.88c-1.96-1.05-4.33-.93-6.17,.31l-25.07,16.82h-17.76c-3.32,0-6,2.69-6,6v32.16c0,3.31,2.68,6,6,6h17.76l25.07,16.82c1.01,.68,2.17,1.02,3.34,1.02,.97,0,1.94-.24,2.83-.71,1.95-1.04,3.17-3.08,3.17-5.29V124.58c0-2.22-1.22-4.25-3.17-5.29Zm-35.42,49.29h-7.58v-20.16h7.58v20.16Zm26.59,12.59l-14.59-9.79v-25.76l14.59-9.79v45.34Zm32.25-43.2c-2.35-2.34-6.14-2.35-8.49,0-2.34,2.34-2.34,6.14,0,8.48,3.31,3.31,5.14,7.71,5.14,12.39s-1.83,9.09-5.14,12.4c-2.34,2.34-2.34,6.14,0,8.48,1.18,1.17,2.71,1.76,4.25,1.76,1.53,0,3.07-.59,4.24-1.76,5.58-5.58,8.65-12.99,8.65-20.88s-3.07-15.3-8.65-20.87Zm-4.15,255.86v-7.92c0-11.45-9.32-20.77-20.77-20.77s-20.77,9.32-20.77,20.77v7.92c-6.53,1.07-11.53,6.73-11.53,13.55v23.68c0,7.58,6.17,13.75,13.76,13.75h37.08c7.59,0,13.75-6.17,13.75-13.75v-23.68c0-6.82-4.99-12.48-11.52-13.55Zm-29.54-7.92c0-4.84,3.93-8.77,8.77-8.77s8.77,3.93,8.77,8.77v7.72h-17.54v-7.72Zm29.06,45.15c0,.95-.8,1.75-1.75,1.75h-37.08c-.95,0-1.76-.8-1.76-1.75v-23.68c0-.95,.81-1.75,1.76-1.75h37.08c.95,0,1.75,.8,1.75,1.75v23.68Zm-1.75-160.52h-25.61v-7.72c0-4.84,3.93-8.77,8.77-8.77,2.61,0,5.07,1.16,6.75,3.2,2.12,2.55,5.9,2.9,8.45,.78,2.55-2.11,2.9-5.9,.79-8.45-3.98-4.79-9.8-7.53-15.99-7.53-11.45,0-20.77,9.32-20.77,20.77v7.75c-7.34,.28-13.23,6.32-13.23,13.73v23.67c0,7.59,6.17,13.75,13.76,13.75h37.08c7.59,0,13.76-6.16,13.76-13.75v-23.67c0-7.59-6.17-13.76-13.76-13.76Zm1.76,37.43c0,.95-.81,1.75-1.76,1.75h-37.08c-.95,0-1.76-.8-1.76-1.75v-23.67c0-.95,.81-1.76,1.76-1.76h37.08c.95,0,1.76,.81,1.76,1.76v23.67Zm21.53-177.32c-2.35-2.34-6.15-2.34-8.49,0-2.34,2.35-2.34,6.14,0,8.49,5.26,5.26,8.16,12.26,8.16,19.7s-2.9,14.45-8.16,19.71c-2.34,2.34-2.34,6.14,0,8.49,1.17,1.17,2.71,1.75,4.24,1.75,1.54,0,3.07-.58,4.25-1.75,7.53-7.53,11.67-17.55,11.67-28.2s-4.14-20.66-11.67-28.19Zm-23.29,139.89h-25.61v-7.72c0-4.84,3.93-8.77,8.77-8.77,2.61,0,5.07,1.16,6.75,3.2,2.12,2.55,5.9,2.9,8.45,.78,2.55-2.11,2.9-5.9,.79-8.45-3.98-4.79-9.8-7.53-15.99-7.53-11.45,0-20.77,9.32-20.77,20.77v7.75c-7.34,.28-13.23,6.32-13.23,13.73v23.67c0,7.59,6.17,13.75,13.76,13.75h37.08c7.59,0,13.76-6.16,13.76-13.75v-23.67c0-7.59-6.17-13.76-13.76-13.76Zm1.76,37.43c0,.95-.81,1.75-1.76,1.75h-37.08c-.95,0-1.76-.8-1.76-1.75v-23.67c0-.95,.81-1.76,1.76-1.76h37.08c.95,0,1.76,.81,1.76,1.76v23.67Zm.47,85.86v-7.92c0-11.45-9.32-20.77-20.77-20.77s-20.77,9.32-20.77,20.77v7.92c-6.53,1.07-11.53,6.73-11.53,13.55v23.68c0,7.58,6.17,13.75,13.76,13.75h37.08c7.59,0,13.75-6.17,13.75-13.75v-23.68c0-6.82-4.99-12.48-11.52-13.55Zm-29.54-7.92c0-4.84,3.93-8.77,8.77-8.77s8.77,3.93,8.77,8.77v7.72h-17.54v-7.72Zm29.06,45.15c0,.95-.8,1.75-1.75,1.75h-37.08c-.95,0-1.76-.8-1.76-1.75v-23.68c0-.95,.81-1.75,1.76-1.75h37.08c.95,0,1.75,.8,1.75,1.75v23.68Zm21.54-300.41c-2.35-2.34-6.15-2.34-8.49,0-2.34,2.35-2.34,6.14,0,8.49,5.26,5.26,8.16,12.26,8.16,19.7s-2.9,14.45-8.16,19.71c-2.34,2.34-2.34,6.14,0,8.49,1.17,1.17,2.71,1.75,4.24,1.75,1.54,0,3.07-.58,4.25-1.75,7.53-7.53,11.67-17.55,11.67-28.2s-4.14-20.66-11.67-28.19Zm-16.91,7.32c-2.35-2.34-6.14-2.35-8.49,0-2.34,2.34-2.34,6.14,0,8.48,3.31,3.31,5.14,7.71,5.14,12.39s-1.83,9.09-5.14,12.4c-2.34,2.34-2.34,6.14,0,8.48,1.18,1.17,2.71,1.76,4.25,1.76,1.53,0,3.07-.59,4.24-1.76,5.58-5.58,8.65-12.99,8.65-20.88s-3.07-15.3-8.65-20.87Zm-23.42-18.68c-1.96-1.05-4.33-.93-6.17,.31l-25.07,16.82h-17.76c-3.32,0-6,2.69-6,6v32.16c0,3.31,2.68,6,6,6h17.76l25.07,16.82c1.01,.68,2.17,1.02,3.34,1.02,.97,0,1.94-.24,2.83-.71,1.95-1.04,3.17-3.08,3.17-5.29V124.58c0-2.22-1.22-4.25-3.17-5.29Zm-35.42,49.29h-7.58v-20.16h7.58v20.16Zm26.59,12.59l-14.59-9.79v-25.76l14.59-9.79v45.34Zm108.76-66.94c-1.48-10.65-9.66-18.52-20.36-19.59-53.07-5.29-109.07-5.29-162.14,0-10.7,1.07-18.88,8.94-20.36,19.59-7.35,52.85-11.08,109.15-11.08,167.36s3.73,114.51,11.08,167.36c1.48,10.65,9.66,18.52,20.36,19.59,26.54,2.64,53.81,3.98,81.07,3.98s54.53-1.34,81.07-3.98c10.7-1.07,18.88-8.94,20.36-19.59,7.35-52.85,11.08-109.16,11.08-167.36s-3.73-114.51-11.08-167.36Zm-190.98,1.65c.73-5.21,4.43-8.78,9.67-9.3,26.14-2.6,53.02-3.92,79.88-3.92s53.74,1.32,79.88,3.92c5.24,.52,8.94,4.09,9.67,9.3,2.2,15.84,4.07,31.99,5.61,48.41,1.54,16.43,2.75,33.13,3.63,50.05H157.21c1.76-33.85,4.84-66.79,9.24-98.46Zm179.1,331.42c-.73,5.21-4.43,8.77-9.67,9.29-52.28,5.21-107.48,5.21-159.76,0-5.24-.52-8.94-4.08-9.67-9.29-4.38-31.49-7.45-64.23-9.2-97.87h197.5c-1.75,33.65-4.82,66.38-9.2,97.87Zm9.78-109.87H156.67c-.78-18.38-1.18-37-1.18-55.84,0-18.63,.39-37.06,1.16-55.25h198.7c.77,18.19,1.16,36.62,1.16,55.25,0,18.84-.4,37.46-1.18,55.84Zm-65.99-206.78c-2.34,2.35-2.34,6.14,0,8.49,5.26,5.26,8.16,12.26,8.16,19.7s-2.9,14.45-8.16,19.71c-2.34,2.34-2.34,6.14,0,8.49,1.17,1.17,2.71,1.75,4.24,1.75,1.54,0,3.07-.58,4.25-1.75,7.53-7.53,11.67-17.55,11.67-28.2s-4.14-20.66-11.67-28.19c-2.35-2.34-6.15-2.34-8.49,0Zm-14.8,139.89h-25.61v-7.72c0-4.84,3.93-8.77,8.77-8.77,2.61,0,5.07,1.16,6.75,3.2,2.12,2.55,5.9,2.9,8.45,.78,2.55-2.11,2.9-5.9,.79-8.45-3.98-4.79-9.8-7.53-15.99-7.53-11.45,0-20.77,9.32-20.77,20.77v7.75c-7.34,.28-13.23,6.32-13.23,13.73v23.67c0,7.59,6.17,13.75,13.76,13.75h37.08c7.59,0,13.76-6.16,13.76-13.75v-23.67c0-7.59-6.17-13.76-13.76-13.76Zm1.76,37.43c0,.95-.81,1.75-1.76,1.75h-37.08c-.95,0-1.76-.8-1.76-1.75v-23.67c0-.95,.81-1.76,1.76-1.76h37.08c.95,0,1.76,.81,1.76,1.76v23.67Zm-38.84,136.84h37.08c7.59,0,13.75-6.17,13.75-13.75v-23.68c0-6.82-4.99-12.48-11.52-13.55v-7.92c0-11.45-9.32-20.77-20.77-20.77s-20.77,9.32-20.77,20.77v7.92c-6.53,1.07-11.53,6.73-11.53,13.55v23.68c0,7.58,6.17,13.75,13.76,13.75Zm9.77-58.9c0-4.84,3.93-8.77,8.77-8.77s8.77,3.93,8.77,8.77v7.72h-17.54v-7.72Zm-11.53,21.47c0-.95,.81-1.75,1.76-1.75h37.08c.95,0,1.75,.8,1.75,1.75v23.68c0,.95-.8,1.75-1.75,1.75h-37.08c-.95,0-1.76-.8-1.76-1.75v-23.68Zm45.22-269.41c-2.35-2.34-6.14-2.35-8.49,0-2.34,2.34-2.34,6.14,0,8.48,3.31,3.31,5.14,7.71,5.14,12.39s-1.83,9.09-5.14,12.4c-2.34,2.34-2.34,6.14,0,8.48,1.18,1.17,2.71,1.76,4.25,1.76,1.53,0,3.07-.59,4.24-1.76,5.58-5.58,8.65-12.99,8.65-20.88s-3.07-15.3-8.65-20.87Zm-23.42-18.68c-1.96-1.05-4.33-.93-6.17,.31l-25.07,16.82h-17.76c-3.32,0-6,2.69-6,6v32.16c0,3.31,2.68,6,6,6h17.76l25.07,16.82c1.01,.68,2.17,1.02,3.34,1.02,.97,0,1.94-.24,2.83-.71,1.95-1.04,3.17-3.08,3.17-5.29V124.58c0-2.22-1.22-4.25-3.17-5.29Zm-35.42,49.29h-7.58v-20.16h7.58v20.16Zm26.59,12.59l-14.59-9.79v-25.76l14.59-9.79v45.34Zm8.83-61.88c-1.96-1.05-4.33-.93-6.17,.31l-25.07,16.82h-17.76c-3.32,0-6,2.69-6,6v32.16c0,3.31,2.68,6,6,6h17.76l25.07,16.82c1.01,.68,2.17,1.02,3.34,1.02,.97,0,1.94-.24,2.83-.71,1.95-1.04,3.17-3.08,3.17-5.29V124.58c0-2.22-1.22-4.25-3.17-5.29Zm-35.42,49.29h-7.58v-20.16h7.58v20.16Zm26.59,12.59l-14.59-9.79v-25.76l14.59-9.79v45.34Zm32.25-43.2c-2.35-2.34-6.14-2.35-8.49,0-2.34,2.34-2.34,6.14,0,8.48,3.31,3.31,5.14,7.71,5.14,12.39s-1.83,9.09-5.14,12.4c-2.34,2.34-2.34,6.14,0,8.48,1.18,1.17,2.71,1.76,4.25,1.76,1.53,0,3.07-.59,4.24-1.76,5.58-5.58,8.65-12.99,8.65-20.88s-3.07-15.3-8.65-20.87Zm16.91-7.32c-2.35-2.34-6.15-2.34-8.49,0-2.34,2.35-2.34,6.14,0,8.49,5.26,5.26,8.16,12.26,8.16,19.7s-2.9,14.45-8.16,19.71c-2.34,2.34-2.34,6.14,0,8.49,1.17,1.17,2.71,1.75,4.24,1.75,1.54,0,3.07-.58,4.25-1.75,7.53-7.53,11.67-17.55,11.67-28.2s-4.14-20.66-11.67-28.19Zm-21.06,263.18v-7.92c0-11.45-9.32-20.77-20.77-20.77s-20.77,9.32-20.77,20.77v7.92c-6.53,1.07-11.53,6.73-11.53,13.55v23.68c0,7.58,6.17,13.75,13.76,13.75h37.08c7.59,0,13.75-6.17,13.75-13.75v-23.68c0-6.82-4.99-12.48-11.52-13.55Zm-29.54-7.92c0-4.84,3.93-8.77,8.77-8.77s8.77,3.93,8.77,8.77v7.72h-17.54v-7.72Zm29.06,45.15c0,.95-.8,1.75-1.75,1.75h-37.08c-.95,0-1.76-.8-1.76-1.75v-23.68c0-.95,.81-1.75,1.76-1.75h37.08c.95,0,1.75,.8,1.75,1.75v23.68Zm-1.75-160.52h-25.61v-7.72c0-4.84,3.93-8.77,8.77-8.77,2.61,0,5.07,1.16,6.75,3.2,2.12,2.55,5.9,2.9,8.45,.78,2.55-2.11,2.9-5.9,.79-8.45-3.98-4.79-9.8-7.53-15.99-7.53-11.45,0-20.77,9.32-20.77,20.77v7.75c-7.34,.28-13.23,6.32-13.23,13.73v23.67c0,7.59,6.17,13.75,13.76,13.75h37.08c7.59,0,13.76-6.16,13.76-13.75v-23.67c0-7.59-6.17-13.76-13.76-13.76Zm1.76,37.43c0,.95-.81,1.75-1.76,1.75h-37.08c-.95,0-1.76-.8-1.76-1.75v-23.67c0-.95,.81-1.76,1.76-1.76h37.08c.95,0,1.76,.81,1.76,1.76v23.67Zm21.53-177.32c-2.35-2.34-6.15-2.34-8.49,0-2.34,2.35-2.34,6.14,0,8.49,5.26,5.26,8.16,12.26,8.16,19.7s-2.9,14.45-8.16,19.71c-2.34,2.34-2.34,6.14,0,8.49,1.17,1.17,2.71,1.75,4.24,1.75,1.54,0,3.07-.58,4.25-1.75,7.53-7.53,11.67-17.55,11.67-28.2s-4.14-20.66-11.67-28.19Zm-23.29,139.89h-25.61v-7.72c0-4.84,3.93-8.77,8.77-8.77,2.61,0,5.07,1.16,6.75,3.2,2.12,2.55,5.9,2.9,8.45,.78,2.55-2.11,2.9-5.9,.79-8.45-3.98-4.79-9.8-7.53-15.99-7.53-11.45,0-20.77,9.32-20.77,20.77v7.75c-7.34,.28-13.23,6.32-13.23,13.73v23.67c0,7.59,6.17,13.75,13.76,13.75h37.08c7.59,0,13.76-6.16,13.76-13.75v-23.67c0-7.59-6.17-13.76-13.76-13.76Zm1.76,37.43c0,.95-.81,1.75-1.76,1.75h-37.08c-.95,0-1.76-.8-1.76-1.75v-23.67c0-.95,.81-1.76,1.76-1.76h37.08c.95,0,1.76,.81,1.76,1.76v23.67Zm.47,85.86v-7.92c0-11.45-9.32-20.77-20.77-20.77s-20.77,9.32-20.77,20.77v7.92c-6.53,1.07-11.53,6.73-11.53,13.55v23.68c0,7.58,6.17,13.75,13.76,13.75h37.08c7.59,0,13.75-6.17,13.75-13.75v-23.68c0-6.82-4.99-12.48-11.52-13.55Zm-29.54-7.92c0-4.84,3.93-8.77,8.77-8.77s8.77,3.93,8.77,8.77v7.72h-17.54v-7.72Zm29.06,45.15c0,.95-.8,1.75-1.75,1.75h-37.08c-.95,0-1.76-.8-1.76-1.75v-23.68c0-.95,.81-1.75,1.76-1.75h37.08c.95,0,1.75,.8,1.75,1.75v23.68Zm4.63-293.09c-2.35-2.34-6.14-2.35-8.49,0-2.34,2.34-2.34,6.14,0,8.48,3.31,3.31,5.14,7.71,5.14,12.39s-1.83,9.09-5.14,12.4c-2.34,2.34-2.34,6.14,0,8.48,1.18,1.17,2.71,1.76,4.25,1.76,1.53,0,3.07-.59,4.24-1.76,5.58-5.58,8.65-12.99,8.65-20.88s-3.07-15.3-8.65-20.87Zm-23.42-18.68c-1.96-1.05-4.33-.93-6.17,.31l-25.07,16.82h-17.76c-3.32,0-6,2.69-6,6v32.16c0,3.31,2.68,6,6,6h17.76l25.07,16.82c1.01,.68,2.17,1.02,3.34,1.02,.97,0,1.94-.24,2.83-.71,1.95-1.04,3.17-3.08,3.17-5.29V124.58c0-2.22-1.22-4.25-3.17-5.29Zm-35.42,49.29h-7.58v-20.16h7.58v20.16Zm26.59,12.59l-14.59-9.79v-25.76l14.59-9.79v45.34Zm8.83-61.88c-1.96-1.05-4.33-.93-6.17,.31l-25.07,16.82h-17.76c-3.32,0-6,2.69-6,6v32.16c0,3.31,2.68,6,6,6h17.76l25.07,16.82c1.01,.68,2.17,1.02,3.34,1.02,.97,0,1.94-.24,2.83-.71,1.95-1.04,3.17-3.08,3.17-5.29V124.58c0-2.22-1.22-4.25-3.17-5.29Zm-35.42,49.29h-7.58v-20.16h7.58v20.16Zm26.59,12.59l-14.59-9.79v-25.76l14.59-9.79v45.34Zm32.25-43.2c-2.35-2.34-6.14-2.35-8.49,0-2.34,2.34-2.34,6.14,0,8.48,3.31,3.31,5.14,7.71,5.14,12.39s-1.83,9.09-5.14,12.4c-2.34,2.34-2.34,6.14,0,8.48,1.18,1.17,2.71,1.76,4.25,1.76,1.53,0,3.07-.59,4.24-1.76,5.58-5.58,8.65-12.99,8.65-20.88s-3.07-15.3-8.65-20.87Zm-4.15,255.86v-7.92c0-11.45-9.32-20.77-20.77-20.77s-20.77,9.32-20.77,20.77v7.92c-6.53,1.07-11.53,6.73-11.53,13.55v23.68c0,7.58,6.17,13.75,13.76,13.75h37.08c7.59,0,13.75-6.17,13.75-13.75v-23.68c0-6.82-4.99-12.48-11.52-13.55Zm-29.54-7.92c0-4.84,3.93-8.77,8.77-8.77s8.77,3.93,8.77,8.77v7.72h-17.54v-7.72Zm29.06,45.15c0,.95-.8,1.75-1.75,1.75h-37.08c-.95,0-1.76-.8-1.76-1.75v-23.68c0-.95,.81-1.75,1.76-1.75h37.08c.95,0,1.75,.8,1.75,1.75v23.68Zm-1.75-160.52h-25.61v-7.72c0-4.84,3.93-8.77,8.77-8.77,2.61,0,5.07,1.16,6.75,3.2,2.12,2.55,5.9,2.9,8.45,.78,2.55-2.11,2.9-5.9,.79-8.45-3.98-4.79-9.8-7.53-15.99-7.53-11.45,0-20.77,9.32-20.77,20.77v7.75c-7.34,.28-13.23,6.32-13.23,13.73v23.67c0,7.59,6.17,13.75,13.76,13.75h37.08c7.59,0,13.76-6.16,13.76-13.75v-23.67c0-7.59-6.17-13.76-13.76-13.76Zm1.76,37.43c0,.95-.81,1.75-1.76,1.75h-37.08c-.95,0-1.76-.8-1.76-1.75v-23.67c0-.95,.81-1.76,1.76-1.76h37.08c.95,0,1.76,.81,1.76,1.76v23.67Zm21.53-177.32c-2.35-2.34-6.15-2.34-8.49,0-2.34,2.35-2.34,6.14,0,8.49,5.26,5.26,8.16,12.26,8.16,19.7s-2.9,14.45-8.16,19.71c-2.34,2.34-2.34,6.14,0,8.49,1.17,1.17,2.71,1.75,4.24,1.75,1.54,0,3.07-.58,4.25-1.75,7.53-7.53,11.67-17.55,11.67-28.2s-4.14-20.66-11.67-28.19Zm-23.29,139.89h-25.61v-7.72c0-4.84,3.93-8.77,8.77-8.77,2.61,0,5.07,1.16,6.75,3.2,2.12,2.55,5.9,2.9,8.45,.78,2.55-2.11,2.9-5.9,.79-8.45-3.98-4.79-9.8-7.53-15.99-7.53-11.45,0-20.77,9.32-20.77,20.77v7.75c-7.34,.28-13.23,6.32-13.23,13.73v23.67c0,7.59,6.17,13.75,13.76,13.75h37.08c7.59,0,13.76-6.16,13.76-13.75v-23.67c0-7.59-6.17-13.76-13.76-13.76Zm1.76,37.43c0,.95-.81,1.75-1.76,1.75h-37.08c-.95,0-1.76-.8-1.76-1.75v-23.67c0-.95,.81-1.76,1.76-1.76h37.08c.95,0,1.76,.81,1.76,1.76v23.67Zm.47,85.86v-7.92c0-11.45-9.32-20.77-20.77-20.77s-20.77,9.32-20.77,20.77v7.92c-6.53,1.07-11.53,6.73-11.53,13.55v23.68c0,7.58,6.17,13.75,13.76,13.75h37.08c7.59,0,13.75-6.17,13.75-13.75v-23.68c0-6.82-4.99-12.48-11.52-13.55Zm-29.54-7.92c0-4.84,3.93-8.77,8.77-8.77s8.77,3.93,8.77,8.77v7.72h-17.54v-7.72Zm29.06,45.15c0,.95-.8,1.75-1.75,1.75h-37.08c-.95,0-1.76-.8-1.76-1.75v-23.68c0-.95,.81-1.75,1.76-1.75h37.08c.95,0,1.75,.8,1.75,1.75v23.68Zm21.54-300.41c-2.35-2.34-6.15-2.34-8.49,0-2.34,2.35-2.34,6.14,0,8.49,5.26,5.26,8.16,12.26,8.16,19.7s-2.9,14.45-8.16,19.71c-2.34,2.34-2.34,6.14,0,8.49,1.17,1.17,2.71,1.75,4.24,1.75,1.54,0,3.07-.58,4.25-1.75,7.53-7.53,11.67-17.55,11.67-28.2s-4.14-20.66-11.67-28.19Zm-16.91,7.32c-2.35-2.34-6.14-2.35-8.49,0-2.34,2.34-2.34,6.14,0,8.48,3.31,3.31,5.14,7.71,5.14,12.39s-1.83,9.09-5.14,12.4c-2.34,2.34-2.34,6.14,0,8.48,1.18,1.17,2.71,1.76,4.25,1.76,1.53,0,3.07-.59,4.24-1.76,5.58-5.58,8.65-12.99,8.65-20.88s-3.07-15.3-8.65-20.87Zm-23.42-18.68c-1.96-1.05-4.33-.93-6.17,.31l-25.07,16.82h-17.76c-3.32,0-6,2.69-6,6v32.16c0,3.31,2.68,6,6,6h17.76l25.07,16.82c1.01,.68,2.17,1.02,3.34,1.02,.97,0,1.94-.24,2.83-.71,1.95-1.04,3.17-3.08,3.17-5.29V124.58c0-2.22-1.22-4.25-3.17-5.29Zm-35.42,49.29h-7.58v-20.16h7.58v20.16Zm26.59,12.59l-14.59-9.79v-25.76l14.59-9.79v45.34Zm108.76-66.94c-1.48-10.65-9.66-18.52-20.36-19.59-53.07-5.29-109.07-5.29-162.14,0-10.7,1.07-18.88,8.94-20.36,19.59-7.35,52.85-11.08,109.15-11.08,167.36s3.73,114.51,11.08,167.36c1.48,10.65,9.66,18.52,20.36,19.59,26.54,2.64,53.81,3.98,81.07,3.98s54.53-1.34,81.07-3.98c10.7-1.07,18.88-8.94,20.36-19.59,7.35-52.85,11.08-109.16,11.08-167.36s-3.73-114.51-11.08-167.36Zm-190.98,1.65c.73-5.21,4.43-8.78,9.67-9.3,26.14-2.6,53.02-3.92,79.88-3.92s53.74,1.32,79.88,3.92c5.24,.52,8.94,4.09,9.67,9.3,2.2,15.84,4.07,31.99,5.61,48.41,1.54,16.43,2.75,33.13,3.63,50.05H157.21c1.76-33.85,4.84-66.79,9.24-98.46Zm179.1,331.42c-.73,5.21-4.43,8.77-9.67,9.29-52.28,5.21-107.48,5.21-159.76,0-5.24-.52-8.94-4.08-9.67-9.29-4.38-31.49-7.45-64.23-9.2-97.87h197.5c-1.75,33.65-4.82,66.38-9.2,97.87Zm9.78-109.87H156.67c-.78-18.38-1.18-37-1.18-55.84,0-18.63,.39-37.06,1.16-55.25h198.7c.77,18.19,1.16,36.62,1.16,55.25,0,18.84-.4,37.46-1.18,55.84Zm-65.99-206.78c-2.34,2.35-2.34,6.14,0,8.49,5.26,5.26,8.16,12.26,8.16,19.7s-2.9,14.45-8.16,19.71c-2.34,2.34-2.34,6.14,0,8.49,1.17,1.17,2.71,1.75,4.24,1.75,1.54,0,3.07-.58,4.25-1.75,7.53-7.53,11.67-17.55,11.67-28.2s-4.14-20.66-11.67-28.19c-2.35-2.34-6.15-2.34-8.49,0Zm-14.8,139.89h-25.61v-7.72c0-4.84,3.93-8.77,8.77-8.77,2.61,0,5.07,1.16,6.75,3.2,2.12,2.55,5.9,2.9,8.45,.78,2.55-2.11,2.9-5.9,.79-8.45-3.98-4.79-9.8-7.53-15.99-7.53-11.45,0-20.77,9.32-20.77,20.77v7.75c-7.34,.28-13.23,6.32-13.23,13.73v23.67c0,7.59,6.17,13.75,13.76,13.75h37.08c7.59,0,13.76-6.16,13.76-13.75v-23.67c0-7.59-6.17-13.76-13.76-13.76Zm1.76,37.43c0,.95-.81,1.75-1.76,1.75h-37.08c-.95,0-1.76-.8-1.76-1.75v-23.67c0-.95,.81-1.76,1.76-1.76h37.08c.95,0,1.76,.81,1.76,1.76v23.67Zm-38.84,136.84h37.08c7.59,0,13.75-6.17,13.75-13.75v-23.68c0-6.82-4.99-12.48-11.52-13.55v-7.92c0-11.45-9.32-20.77-20.77-20.77s-20.77,9.32-20.77,20.77v7.92c-6.53,1.07-11.53,6.73-11.53,13.55v23.68c0,7.58,6.17,13.75,13.76,13.75Zm9.77-58.9c0-4.84,3.93-8.77,8.77-8.77s8.77,3.93,8.77,8.77v7.72h-17.54v-7.72Zm-11.53,21.47c0-.95,.81-1.75,1.76-1.75h37.08c.95,0,1.75,.8,1.75,1.75v23.68c0,.95-.8,1.75-1.75,1.75h-37.08c-.95,0-1.76-.8-1.76-1.75v-23.68Zm45.22-269.41c-2.35-2.34-6.14-2.35-8.49,0-2.34,2.34-2.34,6.14,0,8.48,3.31,3.31,5.14,7.71,5.14,12.39s-1.83,9.09-5.14,12.4c-2.34,2.34-2.34,6.14,0,8.48,1.18,1.17,2.71,1.76,4.25,1.76,1.53,0,3.07-.59,4.24-1.76,5.58-5.58,8.65-12.99,8.65-20.88s-3.07-15.3-8.65-20.87Zm-23.42-18.68c-1.96-1.05-4.33-.93-6.17,.31l-25.07,16.82h-17.76c-3.32,0-6,2.69-6,6v32.16c0,3.31,2.68,6,6,6h17.76l25.07,16.82c1.01,.68,2.17,1.02,3.34,1.02,.97,0,1.94-.24,2.83-.71,1.95-1.04,3.17-3.08,3.17-5.29V124.58c0-2.22-1.22-4.25-3.17-5.29Zm-35.42,49.29h-7.58v-20.16h7.58v20.16Zm26.59,12.59l-14.59-9.79v-25.76l14.59-9.79v45.34Zm8.83-61.88c-1.96-1.05-4.33-.93-6.17,.31l-25.07,16.82h-17.76c-3.32,0-6,2.69-6,6v32.16c0,3.31,2.68,6,6,6h17.76l25.07,16.82c1.01,.68,2.17,1.02,3.34,1.02,.97,0,1.94-.24,2.83-.71,1.95-1.04,3.17-3.08,3.17-5.29V124.58c0-2.22-1.22-4.25-3.17-5.29Zm-35.42,49.29h-7.58v-20.16h7.58v20.16Zm26.59,12.59l-14.59-9.79v-25.76l14.59-9.79v45.34Zm32.25-43.2c-2.35-2.34-6.14-2.35-8.49,0-2.34,2.34-2.34,6.14,0,8.48,3.31,3.31,5.14,7.71,5.14,12.39s-1.83,9.09-5.14,12.4c-2.34,2.34-2.34,6.14,0,8.48,1.18,1.17,2.71,1.76,4.25,1.76,1.53,0,3.07-.59,4.24-1.76,5.58-5.58,8.65-12.99,8.65-20.88s-3.07-15.3-8.65-20.87Zm16.91-7.32c-2.35-2.34-6.15-2.34-8.49,0-2.34,2.35-2.34,6.14,0,8.49,5.26,5.26,8.16,12.26,8.16,19.7s-2.9,14.45-8.16,19.71c-2.34,2.34-2.34,6.14,0,8.49,1.17,1.17,2.71,1.75,4.24,1.75,1.54,0,3.07-.58,4.25-1.75,7.53-7.53,11.67-17.55,11.67-28.2s-4.14-20.66-11.67-28.19Zm-21.06,263.18v-7.92c0-11.45-9.32-20.77-20.77-20.77s-20.77,9.32-20.77,20.77v7.92c-6.53,1.07-11.53,6.73-11.53,13.55v23.68c0,7.58,6.17,13.75,13.76,13.75h37.08c7.59,0,13.75-6.17,13.75-13.75v-23.68c0-6.82-4.99-12.48-11.52-13.55Zm-29.54-7.92c0-4.84,3.93-8.77,8.77-8.77s8.77,3.93,8.77,8.77v7.72h-17.54v-7.72Zm29.06,45.15c0,.95-.8,1.75-1.75,1.75h-37.08c-.95,0-1.76-.8-1.76-1.75v-23.68c0-.95,.81-1.75,1.76-1.75h37.08c.95,0,1.75,.8,1.75,1.75v23.68Zm-1.75-160.52h-25.61v-7.72c0-4.84,3.93-8.77,8.77-8.77,2.61,0,5.07,1.16,6.75,3.2,2.12,2.55,5.9,2.9,8.45,.78,2.55-2.11,2.9-5.9,.79-8.45-3.98-4.79-9.8-7.53-15.99-7.53-11.45,0-20.77,9.32-20.77,20.77v7.75c-7.34,.28-13.23,6.32-13.23,13.73v23.67c0,7.59,6.17,13.75,13.76,13.75h37.08c7.59,0,13.76-6.16,13.76-13.75v-23.67c0-7.59-6.17-13.76-13.76-13.76Zm1.76,37.43c0,.95-.81,1.75-1.76,1.75h-37.08c-.95,0-1.76-.8-1.76-1.75v-23.67c0-.95,.81-1.76,1.76-1.76h37.08c.95,0,1.76,.81,1.76,1.76v23.67Zm21.53-177.32c-2.35-2.34-6.15-2.34-8.49,0-2.34,2.35-2.34,6.14,0,8.49,5.26,5.26,8.16,12.26,8.16,19.7s-2.9,14.45-8.16,19.71c-2.34,2.34-2.34,6.14,0,8.49,1.17,1.17,2.71,1.75,4.24,1.75,1.54,0,3.07-.58,4.25-1.75,7.53-7.53,11.67-17.55,11.67-28.2s-4.14-20.66-11.67-28.19Zm-23.29,139.89h-25.61v-7.72c0-4.84,3.93-8.77,8.77-8.77,2.61,0,5.07,1.16,6.75,3.2,2.12,2.55,5.9,2.9,8.45,.78,2.55-2.11,2.9-5.9,.79-8.45-3.98-4.79-9.8-7.53-15.99-7.53-11.45,0-20.77,9.32-20.77,20.77v7.75c-7.34,.28-13.23,6.32-13.23,13.73v23.67c0,7.59,6.17,13.75,13.76,13.75h37.08c7.59,0,13.76-6.16,13.76-13.75v-23.67c0-7.59-6.17-13.76-13.76-13.76Zm1.76,37.43c0,.95-.81,1.75-1.76,1.75h-37.08c-.95,0-1.76-.8-1.76-1.75v-23.67c0-.95,.81-1.76,1.76-1.76h37.08c.95,0,1.76,.81,1.76,1.76v23.67Zm.47,85.86v-7.92c0-11.45-9.32-20.77-20.77-20.77s-20.77,9.32-20.77,20.77v7.92c-6.53,1.07-11.53,6.73-11.53,13.55v23.68c0,7.58,6.17,13.75,13.76,13.75h37.08c7.59,0,13.75-6.17,13.75-13.75v-23.68c0-6.82-4.99-12.48-11.52-13.55Zm-29.54-7.92c0-4.84,3.93-8.77,8.77-8.77s8.77,3.93,8.77,8.77v7.72h-17.54v-7.72Zm29.06,45.15c0,.95-.8,1.75-1.75,1.75h-37.08c-.95,0-1.76-.8-1.76-1.75v-23.68c0-.95,.81-1.75,1.76-1.75h37.08c.95,0,1.75,.8,1.75,1.75v23.68Zm4.63-293.09c-2.35-2.34-6.14-2.35-8.49,0-2.34,2.34-2.34,6.14,0,8.48,3.31,3.31,5.14,7.71,5.14,12.39s-1.83,9.09-5.14,12.4c-2.34,2.34-2.34,6.14,0,8.48,1.18,1.17,2.71,1.76,4.25,1.76,1.53,0,3.07-.59,4.24-1.76,5.58-5.58,8.65-12.99,8.65-20.88s-3.07-15.3-8.65-20.87Zm-23.42-18.68c-1.96-1.05-4.33-.93-6.17,.31l-25.07,16.82h-17.76c-3.32,0-6,2.69-6,6v32.16c0,3.31,2.68,6,6,6h17.76l25.07,16.82c1.01,.68,2.17,1.02,3.34,1.02,.97,0,1.94-.24,2.83-.71,1.95-1.04,3.17-3.08,3.17-5.29V124.58c0-2.22-1.22-4.25-3.17-5.29Zm-35.42,49.29h-7.58v-20.16h7.58v20.16Zm26.59,12.59l-14.59-9.79v-25.76l14.59-9.79v45.34ZM322.01,37.77c-43.8-4.36-88.22-4.36-132.02,0-3.3,.33-5.71,3.27-5.38,6.57,.33,3.3,3.26,5.7,6.57,5.37,43.01-4.28,86.63-4.28,129.64,0,.21,.02,.41,.03,.61,.03,3.04,0,5.65-2.31,5.96-5.4,.33-3.3-2.08-6.24-5.38-6.57Zm-64.51,81.52c-1.96-1.05-4.33-.93-6.17,.31l-25.07,16.82h-17.76c-3.32,0-6,2.69-6,6v32.16c0,3.31,2.68,6,6,6h17.76l25.07,16.82c1.01,.68,2.17,1.02,3.34,1.02,.97,0,1.94-.24,2.83-.71,1.95-1.04,3.17-3.08,3.17-5.29V124.58c0-2.22-1.22-4.25-3.17-5.29Zm-35.42,49.29h-7.58v-20.16h7.58v20.16Zm26.59,12.59l-14.59-9.79v-25.76l14.59-9.79v45.34Zm32.25-43.2c-2.35-2.34-6.14-2.35-8.49,0-2.34,2.34-2.34,6.14,0,8.48,3.31,3.31,5.14,7.71,5.14,12.39s-1.83,9.09-5.14,12.4c-2.34,2.34-2.34,6.14,0,8.48,1.18,1.17,2.71,1.76,4.25,1.76,1.53,0,3.07-.59,4.24-1.76,5.58-5.58,8.65-12.99,8.65-20.88s-3.07-15.3-8.65-20.87Zm-4.15,255.86v-7.92c0-11.45-9.32-20.77-20.77-20.77s-20.77,9.32-20.77,20.77v7.92c-6.53,1.07-11.53,6.73-11.53,13.55v23.68c0,7.58,6.17,13.75,13.76,13.75h37.08c7.59,0,13.75-6.17,13.75-13.75v-23.68c0-6.82-4.99-12.48-11.52-13.55Zm-29.54-7.92c0-4.84,3.93-8.77,8.77-8.77s8.77,3.93,8.77,8.77v7.72h-17.54v-7.72Zm29.06,45.15c0,.95-.8,1.75-1.75,1.75h-37.08c-.95,0-1.76-.8-1.76-1.75v-23.68c0-.95,.81-1.75,1.76-1.75h37.08c.95,0,1.75,.8,1.75,1.75v23.68Zm-1.75-160.52h-25.61v-7.72c0-4.84,3.93-8.77,8.77-8.77,2.61,0,5.07,1.16,6.75,3.2,2.12,2.55,5.9,2.9,8.45,.78,2.55-2.11,2.9-5.9,.79-8.45-3.98-4.79-9.8-7.53-15.99-7.53-11.45,0-20.77,9.32-20.77,20.77v7.75c-7.34,.28-13.23,6.32-13.23,13.73v23.67c0,7.59,6.17,13.75,13.76,13.75h37.08c7.59,0,13.76-6.16,13.76-13.75v-23.67c0-7.59-6.17-13.76-13.76-13.76Zm1.76,37.43c0,.95-.81,1.75-1.76,1.75h-37.08c-.95,0-1.76-.8-1.76-1.75v-23.67c0-.95,.81-1.76,1.76-1.76h37.08c.95,0,1.76,.81,1.76,1.76v23.67Zm21.53-177.32c-2.35-2.34-6.15-2.34-8.49,0-2.34,2.35-2.34,6.14,0,8.49,5.26,5.26,8.16,12.26,8.16,19.7s-2.9,14.45-8.16,19.71c-2.34,2.34-2.34,6.14,0,8.49,1.17,1.17,2.71,1.75,4.24,1.75,1.54,0,3.07-.58,4.25-1.75,7.53-7.53,11.67-17.55,11.67-28.2s-4.14-20.66-11.67-28.19Zm24.18-92.88c-43.8-4.36-88.22-4.36-132.02,0-3.3,.33-5.71,3.27-5.38,6.57,.33,3.3,3.26,5.7,6.57,5.37,43.01-4.28,86.63-4.28,129.64,0,.21,.02,.41,.03,.61,.03,3.04,0,5.65-2.31,5.96-5.4,.33-3.3-2.08-6.24-5.38-6.57Zm-47.47,232.77h-25.61v-7.72c0-4.84,3.93-8.77,8.77-8.77,2.61,0,5.07,1.16,6.75,3.2,2.12,2.55,5.9,2.9,8.45,.78,2.55-2.11,2.9-5.9,.79-8.45-3.98-4.79-9.8-7.53-15.99-7.53-11.45,0-20.77,9.32-20.77,20.77v7.75c-7.34,.28-13.23,6.32-13.23,13.73v23.67c0,7.59,6.17,13.75,13.76,13.75h37.08c7.59,0,13.76-6.16,13.76-13.75v-23.67c0-7.59-6.17-13.76-13.76-13.76Zm1.76,37.43c0,.95-.81,1.75-1.76,1.75h-37.08c-.95,0-1.76-.8-1.76-1.75v-23.67c0-.95,.81-1.76,1.76-1.76h37.08c.95,0,1.76,.81,1.76,1.76v23.67Zm.47,85.86v-7.92c0-11.45-9.32-20.77-20.77-20.77s-20.77,9.32-20.77,20.77v7.92c-6.53,1.07-11.53,6.73-11.53,13.55v23.68c0,7.58,6.17,13.75,13.76,13.75h37.08c7.59,0,13.75-6.17,13.75-13.75v-23.68c0-6.82-4.99-12.48-11.52-13.55Zm-29.54-7.92c0-4.84,3.93-8.77,8.77-8.77s8.77,3.93,8.77,8.77v7.72h-17.54v-7.72Zm29.06,45.15c0,.95-.8,1.75-1.75,1.75h-37.08c-.95,0-1.76-.8-1.76-1.75v-23.68c0-.95,.81-1.75,1.76-1.75h37.08c.95,0,1.75,.8,1.75,1.75v23.68Zm21.54-300.41c-2.35-2.34-6.15-2.34-8.49,0-2.34,2.35-2.34,6.14,0,8.49,5.26,5.26,8.16,12.26,8.16,19.7s-2.9,14.45-8.16,19.71c-2.34,2.34-2.34,6.14,0,8.49,1.17,1.17,2.71,1.75,4.24,1.75,1.54,0,3.07-.58,4.25-1.75,7.53-7.53,11.67-17.55,11.67-28.2s-4.14-20.66-11.67-28.19Zm-16.91,7.32c-2.35-2.34-6.14-2.35-8.49,0-2.34,2.34-2.34,6.14,0,8.48,3.31,3.31,5.14,7.71,5.14,12.39s-1.83,9.09-5.14,12.4c-2.34,2.34-2.34,6.14,0,8.48,1.18,1.17,2.71,1.76,4.25,1.76,1.53,0,3.07-.59,4.24-1.76,5.58-5.58,8.65-12.99,8.65-20.88s-3.07-15.3-8.65-20.87Zm-23.42-18.68c-1.96-1.05-4.33-.93-6.17,.31l-25.07,16.82h-17.76c-3.32,0-6,2.69-6,6v32.16c0,3.31,2.68,6,6,6h17.76l25.07,16.82c1.01,.68,2.17,1.02,3.34,1.02,.97,0,1.94-.24,2.83-.71,1.95-1.04,3.17-3.08,3.17-5.29V124.58c0-2.22-1.22-4.25-3.17-5.29Zm-35.42,49.29h-7.58v-20.16h7.58v20.16Zm26.59,12.59l-14.59-9.79v-25.76l14.59-9.79v45.34Zm108.76-66.94c-1.48-10.65-9.66-18.52-20.36-19.59-53.07-5.29-109.07-5.29-162.14,0-10.7,1.07-18.88,8.94-20.36,19.59-7.35,52.85-11.08,109.15-11.08,167.36s3.73,114.51,11.08,167.36c1.48,10.65,9.66,18.52,20.36,19.59,26.54,2.64,53.81,3.98,81.07,3.98s54.53-1.34,81.07-3.98c10.7-1.07,18.88-8.94,20.36-19.59,7.35-52.85,11.08-109.16,11.08-167.36s-3.73-114.51-11.08-167.36Zm-190.98,1.65c.73-5.21,4.43-8.78,9.67-9.3,26.14-2.6,53.02-3.92,79.88-3.92s53.74,1.32,79.88,3.92c5.24,.52,8.94,4.09,9.67,9.3,2.2,15.84,4.07,31.99,5.61,48.41,1.54,16.43,2.75,33.13,3.63,50.05H157.21c1.76-33.85,4.84-66.79,9.24-98.46Zm179.1,331.42c-.73,5.21-4.43,8.77-9.67,9.29-52.28,5.21-107.48,5.21-159.76,0-5.24-.52-8.94-4.08-9.67-9.29-4.38-31.49-7.45-64.23-9.2-97.87h197.5c-1.75,33.65-4.82,66.38-9.2,97.87Zm9.78-109.87H156.67c-.78-18.38-1.18-37-1.18-55.84,0-18.63,.39-37.06,1.16-55.25h198.7c.77,18.19,1.16,36.62,1.16,55.25,0,18.84-.4,37.46-1.18,55.84Zm-65.99-206.78c-2.34,2.35-2.34,6.14,0,8.49,5.26,5.26,8.16,12.26,8.16,19.7s-2.9,14.45-8.16,19.71c-2.34,2.34-2.34,6.14,0,8.49,1.17,1.17,2.71,1.75,4.24,1.75,1.54,0,3.07-.58,4.25-1.75,7.53-7.53,11.67-17.55,11.67-28.2s-4.14-20.66-11.67-28.19c-2.35-2.34-6.15-2.34-8.49,0Zm-14.8,139.89h-25.61v-7.72c0-4.84,3.93-8.77,8.77-8.77,2.61,0,5.07,1.16,6.75,3.2,2.12,2.55,5.9,2.9,8.45,.78,2.55-2.11,2.9-5.9,.79-8.45-3.98-4.79-9.8-7.53-15.99-7.53-11.45,0-20.77,9.32-20.77,20.77v7.75c-7.34,.28-13.23,6.32-13.23,13.73v23.67c0,7.59,6.17,13.75,13.76,13.75h37.08c7.59,0,13.76-6.16,13.76-13.75v-23.67c0-7.59-6.17-13.76-13.76-13.76Zm1.76,37.43c0,.95-.81,1.75-1.76,1.75h-37.08c-.95,0-1.76-.8-1.76-1.75v-23.67c0-.95,.81-1.76,1.76-1.76h37.08c.95,0,1.76,.81,1.76,1.76v23.67Zm-38.84,136.84h37.08c7.59,0,13.75-6.17,13.75-13.75v-23.68c0-6.82-4.99-12.48-11.52-13.55v-7.92c0-11.45-9.32-20.77-20.77-20.77s-20.77,9.32-20.77,20.77v7.92c-6.53,1.07-11.53,6.73-11.53,13.55v23.68c0,7.58,6.17,13.75,13.76,13.75Zm9.77-58.9c0-4.84,3.93-8.77,8.77-8.77s8.77,3.93,8.77,8.77v7.72h-17.54v-7.72Zm-11.53,21.47c0-.95,.81-1.75,1.76-1.75h37.08c.95,0,1.75,.8,1.75,1.75v23.68c0,.95-.8,1.75-1.75,1.75h-37.08c-.95,0-1.76-.8-1.76-1.75v-23.68Zm45.22-269.41c-2.35-2.34-6.14-2.35-8.49,0-2.34,2.34-2.34,6.14,0,8.48,3.31,3.31,5.14,7.71,5.14,12.39s-1.83,9.09-5.14,12.4c-2.34,2.34-2.34,6.14,0,8.48,1.18,1.17,2.71,1.76,4.25,1.76,1.53,0,3.07-.59,4.24-1.76,5.58-5.58,8.65-12.99,8.65-20.88s-3.07-15.3-8.65-20.87Zm-23.42-18.68c-1.96-1.05-4.33-.93-6.17,.31l-25.07,16.82h-17.76c-3.32,0-6,2.69-6,6v32.16c0,3.31,2.68,6,6,6h17.76l25.07,16.82c1.01,.68,2.17,1.02,3.34,1.02,.97,0,1.94-.24,2.83-.71,1.95-1.04,3.17-3.08,3.17-5.29V124.58c0-2.22-1.22-4.25-3.17-5.29Zm-35.42,49.29h-7.58v-20.16h7.58v20.16Zm26.59,12.59l-14.59-9.79v-25.76l14.59-9.79v45.34Zm108.76-66.94c-1.48-10.65-9.66-18.52-20.36-19.59-53.07-5.29-109.07-5.29-162.14,0-10.7,1.07-18.88,8.94-20.36,19.59-7.35,52.85-11.08,109.15-11.08,167.36s3.73,114.51,11.08,167.36c1.48,10.65,9.66,18.52,20.36,19.59,26.54,2.64,53.81,3.98,81.07,3.98s54.53-1.34,81.07-3.98c10.7-1.07,18.88-8.94,20.36-19.59,7.35-52.85,11.08-109.16,11.08-167.36s-3.73-114.51-11.08-167.36Zm-190.98,1.65c.73-5.21,4.43-8.78,9.67-9.3,26.14-2.6,53.02-3.92,79.88-3.92s53.74,1.32,79.88,3.92c5.24,.52,8.94,4.09,9.67,9.3,2.2,15.84,4.07,31.99,5.61,48.41,1.54,16.43,2.75,33.13,3.63,50.05H157.21c1.76-33.85,4.84-66.79,9.24-98.46Zm179.1,331.42c-.73,5.21-4.43,8.77-9.67,9.29-52.28,5.21-107.48,5.21-159.76,0-5.24-.52-8.94-4.08-9.67-9.29-4.38-31.49-7.45-64.23-9.2-97.87h197.5c-1.75,33.65-4.82,66.38-9.2,97.87Zm9.78-109.87H156.67c-.78-18.38-1.18-37-1.18-55.84,0-18.63,.39-37.06,1.16-55.25h198.7c.77,18.19,1.16,36.62,1.16,55.25,0,18.84-.4,37.46-1.18,55.84Zm-65.99-206.78c-2.34,2.35-2.34,6.14,0,8.49,5.26,5.26,8.16,12.26,8.16,19.7s-2.9,14.45-8.16,19.71c-2.34,2.34-2.34,6.14,0,8.49,1.17,1.17,2.71,1.75,4.24,1.75,1.54,0,3.07-.58,4.25-1.75,7.53-7.53,11.67-17.55,11.67-28.2s-4.14-20.66-11.67-28.19c-2.35-2.34-6.15-2.34-8.49,0Zm-14.8,139.89h-25.61v-7.72c0-4.84,3.93-8.77,8.77-8.77,2.61,0,5.07,1.16,6.75,3.2,2.12,2.55,5.9,2.9,8.45,.78,2.55-2.11,2.9-5.9,.79-8.45-3.98-4.79-9.8-7.53-15.99-7.53-11.45,0-20.77,9.32-20.77,20.77v7.75c-7.34,.28-13.23,6.32-13.23,13.73v23.67c0,7.59,6.17,13.75,13.76,13.75h37.08c7.59,0,13.76-6.16,13.76-13.75v-23.67c0-7.59-6.17-13.76-13.76-13.76Zm1.76,37.43c0,.95-.81,1.75-1.76,1.75h-37.08c-.95,0-1.76-.8-1.76-1.75v-23.67c0-.95,.81-1.76,1.76-1.76h37.08c.95,0,1.76,.81,1.76,1.76v23.67Zm-38.84,136.84h37.08c7.59,0,13.75-6.17,13.75-13.75v-23.68c0-6.82-4.99-12.48-11.52-13.55v-7.92c0-11.45-9.32-20.77-20.77-20.77s-20.77,9.32-20.77,20.77v7.92c-6.53,1.07-11.53,6.73-11.53,13.55v23.68c0,7.58,6.17,13.75,13.76,13.75Zm9.77-58.9c0-4.84,3.93-8.77,8.77-8.77s8.77,3.93,8.77,8.77v7.72h-17.54v-7.72Zm-11.53,21.47c0-.95,.81-1.75,1.76-1.75h37.08c.95,0,1.75,.8,1.75,1.75v23.68c0,.95-.8,1.75-1.75,1.75h-37.08c-.95,0-1.76-.8-1.76-1.75v-23.68Zm45.22-269.41c-2.35-2.34-6.14-2.35-8.49,0-2.34,2.34-2.34,6.14,0,8.48,3.31,3.31,5.14,7.71,5.14,12.39s-1.83,9.09-5.14,12.4c-2.34,2.34-2.34,6.14,0,8.48,1.18,1.17,2.71,1.76,4.25,1.76,1.53,0,3.07-.59,4.24-1.76,5.58-5.58,8.65-12.99,8.65-20.88s-3.07-15.3-8.65-20.87Zm-23.42-18.68c-1.96-1.05-4.33-.93-6.17,.31l-25.07,16.82h-17.76c-3.32,0-6,2.69-6,6v32.16c0,3.31,2.68,6,6,6h17.76l25.07,16.82c1.01,.68,2.17,1.02,3.34,1.02,.97,0,1.94-.24,2.83-.71,1.95-1.04,3.17-3.08,3.17-5.29V124.58c0-2.22-1.22-4.25-3.17-5.29Zm-35.42,49.29h-7.58v-20.16h7.58v20.16Zm26.59,12.59l-14.59-9.79v-25.76l14.59-9.79v45.34ZM322.01,37.77c-43.8-4.36-88.22-4.36-132.02,0-3.3,.33-5.71,3.27-5.38,6.57,.33,3.3,3.26,5.7,6.57,5.37,43.01-4.28,86.63-4.28,129.64,0,.21,.02,.41,.03,.61,.03,3.04,0,5.65-2.31,5.96-5.4,.33-3.3-2.08-6.24-5.38-6.57Zm64.62,72.4c-2.22-15.97-11.45-29.47-24.48-37.44-1.36-13.18-2.94-26.34-4.72-39.16-1.48-10.65-9.66-18.52-20.36-19.59-53.07-5.28-109.07-5.28-162.14,0-10.7,1.07-18.88,8.94-20.36,19.59-1.78,12.82-3.36,25.98-4.72,39.16-13.03,7.97-22.26,21.47-24.48,37.44-7.54,54.18-11.36,111.86-11.36,171.42s3.82,117.23,11.36,171.42c3.34,24.01,22.52,42.46,46.64,44.86,27.5,2.74,55.75,4.13,83.99,4.13s56.49-1.39,83.99-4.13c24.12-2.4,43.3-20.85,46.64-44.86,7.54-54.19,11.36-111.86,11.36-171.42s-3.82-117.24-11.36-171.42ZM166.45,35.22c.73-5.21,4.43-8.77,9.67-9.3,52.28-5.2,107.48-5.2,159.76,0,5.24,.53,8.94,4.09,9.67,9.3,1.45,10.47,2.77,21.17,3.95,31.93-3.06-.89-6.24-1.52-9.51-1.84-55-5.48-112.98-5.48-167.98,0-3.27,.32-6.45,.95-9.51,1.84,1.18-10.76,2.5-21.46,3.95-31.93Zm208.3,416.14c-2.62,18.8-17.06,32.69-35.95,34.57-54.21,5.4-111.39,5.4-165.6,0-18.89-1.88-33.33-15.77-35.95-34.57-7.46-53.64-11.24-110.76-11.24-169.77s3.78-116.13,11.24-169.77c2.62-18.8,17.07-32.69,35.95-34.57,27.11-2.7,54.96-4.07,82.8-4.07s55.69,1.37,82.8,4.07c18.88,1.88,33.33,15.77,35.95,34.57,7.46,53.64,11.24,110.76,11.24,169.77s-3.78,116.13-11.24,169.77Zm-37.68-356.72c-53.07-5.29-109.07-5.29-162.14,0-10.7,1.07-18.88,8.94-20.36,19.59-7.35,52.85-11.08,109.15-11.08,167.36s3.73,114.51,11.08,167.36c1.48,10.65,9.66,18.52,20.36,19.59,26.54,2.64,53.81,3.98,81.07,3.98s54.53-1.34,81.07-3.98c10.7-1.07,18.88-8.94,20.36-19.59,7.35-52.85,11.08-109.16,11.08-167.36s-3.73-114.51-11.08-167.36c-1.48-10.65-9.66-18.52-20.36-19.59Zm-170.62,21.24c.73-5.21,4.43-8.78,9.67-9.3,26.14-2.6,53.02-3.92,79.88-3.92s53.74,1.32,79.88,3.92c5.24,.52,8.94,4.09,9.67,9.3,2.2,15.84,4.07,31.99,5.61,48.41,1.54,16.43,2.75,33.13,3.63,50.05H157.21c1.76-33.85,4.84-66.79,9.24-98.46Zm179.1,331.42c-.73,5.21-4.43,8.77-9.67,9.29-52.28,5.21-107.48,5.21-159.76,0-5.24-.52-8.94-4.08-9.67-9.29-4.38-31.49-7.45-64.23-9.2-97.87h197.5c-1.75,33.65-4.82,66.38-9.2,97.87Zm9.78-109.87H156.67c-.78-18.38-1.18-37-1.18-55.84,0-18.63,.39-37.06,1.16-55.25h198.7c.77,18.19,1.16,36.62,1.16,55.25,0,18.84-.4,37.46-1.18,55.84ZM191.18,49.71c43.01-4.28,86.63-4.28,129.64,0,.21,.02,.41,.03,.61,.03,3.04,0,5.65-2.31,5.96-5.4,.33-3.3-2.08-6.24-5.38-6.57-43.8-4.36-88.22-4.36-132.02,0-3.3,.33-5.71,3.27-5.38,6.57,.33,3.3,3.26,5.7,6.57,5.37Zm98.16,80.94c-2.34,2.35-2.34,6.14,0,8.49,5.26,5.26,8.16,12.26,8.16,19.7s-2.9,14.45-8.16,19.71c-2.34,2.34-2.34,6.14,0,8.49,1.17,1.17,2.71,1.75,4.24,1.75,1.54,0,3.07-.58,4.25-1.75,7.53-7.53,11.67-17.55,11.67-28.2s-4.14-20.66-11.67-28.19c-2.35-2.34-6.15-2.34-8.49,0Zm-14.8,139.89h-25.61v-7.72c0-4.84,3.93-8.77,8.77-8.77,2.61,0,5.07,1.16,6.75,3.2,2.12,2.55,5.9,2.9,8.45,.78,2.55-2.11,2.9-5.9,.79-8.45-3.98-4.79-9.8-7.53-15.99-7.53-11.45,0-20.77,9.32-20.77,20.77v7.75c-7.34,.28-13.23,6.32-13.23,13.73v23.67c0,7.59,6.17,13.75,13.76,13.75h37.08c7.59,0,13.76-6.16,13.76-13.75v-23.67c0-7.59-6.17-13.76-13.76-13.76Zm1.76,37.43c0,.95-.81,1.75-1.76,1.75h-37.08c-.95,0-1.76-.8-1.76-1.75v-23.67c0-.95,.81-1.76,1.76-1.76h37.08c.95,0,1.76,.81,1.76,1.76v23.67Zm-38.84,136.84h37.08c7.59,0,13.75-6.17,13.75-13.75v-23.68c0-6.82-4.99-12.48-11.52-13.55v-7.92c0-11.45-9.32-20.77-20.77-20.77s-20.77,9.32-20.77,20.77v7.92c-6.53,1.07-11.53,6.73-11.53,13.55v23.68c0,7.58,6.17,13.75,13.76,13.75Zm9.77-58.9c0-4.84,3.93-8.77,8.77-8.77s8.77,3.93,8.77,8.77v7.72h-17.54v-7.72Zm-11.53,21.47c0-.95,.81-1.75,1.76-1.75h37.08c.95,0,1.75,.8,1.75,1.75v23.68c0,.95-.8,1.75-1.75,1.75h-37.08c-.95,0-1.76-.8-1.76-1.75v-23.68Zm45.22-269.41c-2.35-2.34-6.14-2.35-8.49,0-2.34,2.34-2.34,6.14,0,8.48,3.31,3.31,5.14,7.71,5.14,12.39s-1.83,9.09-5.14,12.4c-2.34,2.34-2.34,6.14,0,8.48,1.18,1.17,2.71,1.76,4.25,1.76,1.53,0,3.07-.59,4.24-1.76,5.58-5.58,8.65-12.99,8.65-20.88s-3.07-15.3-8.65-20.87Zm-23.42-18.68c-1.96-1.05-4.33-.93-6.17,.31l-25.07,16.82h-17.76c-3.32,0-6,2.69-6,6v32.16c0,3.31,2.68,6,6,6h17.76l25.07,16.82c1.01,.68,2.17,1.02,3.34,1.02,.97,0,1.94-.24,2.83-.71,1.95-1.04,3.17-3.08,3.17-5.29V124.58c0-2.22-1.22-4.25-3.17-5.29Zm-35.42,49.29h-7.58v-20.16h7.58v20.16Zm26.59,12.59l-14.59-9.79v-25.76l14.59-9.79v45.34ZM322.01,37.77c-43.8-4.36-88.22-4.36-132.02,0-3.3,.33-5.71,3.27-5.38,6.57,.33,3.3,3.26,5.7,6.57,5.37,43.01-4.28,86.63-4.28,129.64,0,.21,.02,.41,.03,.61,.03,3.04,0,5.65-2.31,5.96-5.4,.33-3.3-2.08-6.24-5.38-6.57Zm-64.51,81.52c-1.96-1.05-4.33-.93-6.17,.31l-25.07,16.82h-17.76c-3.32,0-6,2.69-6,6v32.16c0,3.31,2.68,6,6,6h17.76l25.07,16.82c1.01,.68,2.17,1.02,3.34,1.02,.97,0,1.94-.24,2.83-.71,1.95-1.04,3.17-3.08,3.17-5.29V124.58c0-2.22-1.22-4.25-3.17-5.29Zm-35.42,49.29h-7.58v-20.16h7.58v20.16Zm26.59,12.59l-14.59-9.79v-25.76l14.59-9.79v45.34Zm32.25-43.2c-2.35-2.34-6.14-2.35-8.49,0-2.34,2.34-2.34,6.14,0,8.48,3.31,3.31,5.14,7.71,5.14,12.39s-1.83,9.09-5.14,12.4c-2.34,2.34-2.34,6.14,0,8.48,1.18,1.17,2.71,1.76,4.25,1.76,1.53,0,3.07-.59,4.24-1.76,5.58-5.58,8.65-12.99,8.65-20.88s-3.07-15.3-8.65-20.87Zm-4.15,255.86v-7.92c0-11.45-9.32-20.77-20.77-20.77s-20.77,9.32-20.77,20.77v7.92c-6.53,1.07-11.53,6.73-11.53,13.55v23.68c0,7.58,6.17,13.75,13.76,13.75h37.08c7.59,0,13.75-6.17,13.75-13.75v-23.68c0-6.82-4.99-12.48-11.52-13.55Zm-29.54-7.92c0-4.84,3.93-8.77,8.77-8.77s8.77,3.93,8.77,8.77v7.72h-17.54v-7.72Zm29.06,45.15c0,.95-.8,1.75-1.75,1.75h-37.08c-.95,0-1.76-.8-1.76-1.75v-23.68c0-.95,.81-1.75,1.76-1.75h37.08c.95,0,1.75,.8,1.75,1.75v23.68Zm-1.75-160.52h-25.61v-7.72c0-4.84,3.93-8.77,8.77-8.77,2.61,0,5.07,1.16,6.75,3.2,2.12,2.55,5.9,2.9,8.45,.78,2.55-2.11,2.9-5.9,.79-8.45-3.98-4.79-9.8-7.53-15.99-7.53-11.45,0-20.77,9.32-20.77,20.77v7.75c-7.34,.28-13.23,6.32-13.23,13.73v23.67c0,7.59,6.17,13.75,13.76,13.75h37.08c7.59,0,13.76-6.16,13.76-13.75v-23.67c0-7.59-6.17-13.76-13.76-13.76Zm1.76,37.43c0,.95-.81,1.75-1.76,1.75h-37.08c-.95,0-1.76-.8-1.76-1.75v-23.67c0-.95,.81-1.76,1.76-1.76h37.08c.95,0,1.76,.81,1.76,1.76v23.67Zm21.53-177.32c-2.35-2.34-6.15-2.34-8.49,0-2.34,2.35-2.34,6.14,0,8.49,5.26,5.26,8.16,12.26,8.16,19.7s-2.9,14.45-8.16,19.71c-2.34,2.34-2.34,6.14,0,8.49,1.17,1.17,2.71,1.75,4.24,1.75,1.54,0,3.07-.58,4.25-1.75,7.53-7.53,11.67-17.55,11.67-28.2s-4.14-20.66-11.67-28.19Zm-23.29,139.89h-25.61v-7.72c0-4.84,3.93-8.77,8.77-8.77,2.61,0,5.07,1.16,6.75,3.2,2.12,2.55,5.9,2.9,8.45,.78,2.55-2.11,2.9-5.9,.79-8.45-3.98-4.79-9.8-7.53-15.99-7.53-11.45,0-20.77,9.32-20.77,20.77v7.75c-7.34,.28-13.23,6.32-13.23,13.73v23.67c0,7.59,6.17,13.75,13.76,13.75h37.08c7.59,0,13.76-6.16,13.76-13.75v-23.67c0-7.59-6.17-13.76-13.76-13.76Zm1.76,37.43c0,.95-.81,1.75-1.76,1.75h-37.08c-.95,0-1.76-.8-1.76-1.75v-23.67c0-.95,.81-1.76,1.76-1.76h37.08c.95,0,1.76,.81,1.76,1.76v23.67Zm.47,85.86v-7.92c0-11.45-9.32-20.77-20.77-20.77s-20.77,9.32-20.77,20.77v7.92c-6.53,1.07-11.53,6.73-11.53,13.55v23.68c0,7.58,6.17,13.75,13.76,13.75h37.08c7.59,0,13.75-6.17,13.75-13.75v-23.68c0-6.82-4.99-12.48-11.52-13.55Zm-29.54-7.92c0-4.84,3.93-8.77,8.77-8.77s8.77,3.93,8.77,8.77v7.72h-17.54v-7.72Zm29.06,45.15c0,.95-.8,1.75-1.75,1.75h-37.08c-.95,0-1.76-.8-1.76-1.75v-23.68c0-.95,.81-1.75,1.76-1.75h37.08c.95,0,1.75,.8,1.75,1.75v23.68Zm21.54-300.41c-2.35-2.34-6.15-2.34-8.49,0-2.34,2.35-2.34,6.14,0,8.49,5.26,5.26,8.16,12.26,8.16,19.7s-2.9,14.45-8.16,19.71c-2.34,2.34-2.34,6.14,0,8.49,1.17,1.17,2.71,1.75,4.24,1.75,1.54,0,3.07-.58,4.25-1.75,7.53-7.53,11.67-17.55,11.67-28.2s-4.14-20.66-11.67-28.19Zm-16.91,7.32c-2.35-2.34-6.14-2.35-8.49,0-2.34,2.34-2.34,6.14,0,8.48,3.31,3.31,5.14,7.71,5.14,12.39s-1.83,9.09-5.14,12.4c-2.34,2.34-2.34,6.14,0,8.48,1.18,1.17,2.71,1.76,4.25,1.76,1.53,0,3.07-.59,4.24-1.76,5.58-5.58,8.65-12.99,8.65-20.88s-3.07-15.3-8.65-20.87Zm-23.42-18.68c-1.96-1.05-4.33-.93-6.17,.31l-25.07,16.82h-17.76c-3.32,0-6,2.69-6,6v32.16c0,3.31,2.68,6,6,6h17.76l25.07,16.82c1.01,.68,2.17,1.02,3.34,1.02,.97,0,1.94-.24,2.83-.71,1.95-1.04,3.17-3.08,3.17-5.29V124.58c0-2.22-1.22-4.25-3.17-5.29Zm-35.42,49.29h-7.58v-20.16h7.58v20.16Zm26.59,12.59l-14.59-9.79v-25.76l14.59-9.79v45.34Zm108.76-66.94c-1.48-10.65-9.66-18.52-20.36-19.59-53.07-5.29-109.07-5.29-162.14,0-10.7,1.07-18.88,8.94-20.36,19.59-7.35,52.85-11.08,109.15-11.08,167.36s3.73,114.51,11.08,167.36c1.48,10.65,9.66,18.52,20.36,19.59,26.54,2.64,53.81,3.98,81.07,3.98s54.53-1.34,81.07-3.98c10.7-1.07,18.88-8.94,20.36-19.59,7.35-52.85,11.08-109.16,11.08-167.36s-3.73-114.51-11.08-167.36Zm-190.98,1.65c.73-5.21,4.43-8.78,9.67-9.3,26.14-2.6,53.02-3.92,79.88-3.92s53.74,1.32,79.88,3.92c5.24,.52,8.94,4.09,9.67,9.3,2.2,15.84,4.07,31.99,5.61,48.41,1.54,16.43,2.75,33.13,3.63,50.05H157.21c1.76-33.85,4.84-66.79,9.24-98.46Zm179.1,331.42c-.73,5.21-4.43,8.77-9.67,9.29-52.28,5.21-107.48,5.21-159.76,0-5.24-.52-8.94-4.08-9.67-9.29-4.38-31.49-7.45-64.23-9.2-97.87h197.5c-1.75,33.65-4.82,66.38-9.2,97.87Zm9.78-109.87H156.67c-.78-18.38-1.18-37-1.18-55.84,0-18.63,.39-37.06,1.16-55.25h198.7c.77,18.19,1.16,36.62,1.16,55.25,0,18.84-.4,37.46-1.18,55.84Zm-65.99-206.78c-2.34,2.35-2.34,6.14,0,8.49,5.26,5.26,8.16,12.26,8.16,19.7s-2.9,14.45-8.16,19.71c-2.34,2.34-2.34,6.14,0,8.49,1.17,1.17,2.71,1.75,4.24,1.75,1.54,0,3.07-.58,4.25-1.75,7.53-7.53,11.67-17.55,11.67-28.2s-4.14-20.66-11.67-28.19c-2.35-2.34-6.15-2.34-8.49,0Zm-14.8,139.89h-25.61v-7.72c0-4.84,3.93-8.77,8.77-8.77,2.61,0,5.07,1.16,6.75,3.2,2.12,2.55,5.9,2.9,8.45,.78,2.55-2.11,2.9-5.9,.79-8.45-3.98-4.79-9.8-7.53-15.99-7.53-11.45,0-20.77,9.32-20.77,20.77v7.75c-7.34,.28-13.23,6.32-13.23,13.73v23.67c0,7.59,6.17,13.75,13.76,13.75h37.08c7.59,0,13.76-6.16,13.76-13.75v-23.67c0-7.59-6.17-13.76-13.76-13.76Zm1.76,37.43c0,.95-.81,1.75-1.76,1.75h-37.08c-.95,0-1.76-.8-1.76-1.75v-23.67c0-.95,.81-1.76,1.76-1.76h37.08c.95,0,1.76,.81,1.76,1.76v23.67Zm-38.84,136.84h37.08c7.59,0,13.75-6.17,13.75-13.75v-23.68c0-6.82-4.99-12.48-11.52-13.55v-7.92c0-11.45-9.32-20.77-20.77-20.77s-20.77,9.32-20.77,20.77v7.92c-6.53,1.07-11.53,6.73-11.53,13.55v23.68c0,7.58,6.17,13.75,13.76,13.75Zm9.77-58.9c0-4.84,3.93-8.77,8.77-8.77s8.77,3.93,8.77,8.77v7.72h-17.54v-7.72Zm-11.53,21.47c0-.95,.81-1.75,1.76-1.75h37.08c.95,0,1.75,.8,1.75,1.75v23.68c0,.95-.8,1.75-1.75,1.75h-37.08c-.95,0-1.76-.8-1.76-1.75v-23.68Zm45.22-269.41c-2.35-2.34-6.14-2.35-8.49,0-2.34,2.34-2.34,6.14,0,8.48,3.31,3.31,5.14,7.71,5.14,12.39s-1.83,9.09-5.14,12.4c-2.34,2.34-2.34,6.14,0,8.48,1.18,1.17,2.71,1.76,4.25,1.76,1.53,0,3.07-.59,4.24-1.76,5.58-5.58,8.65-12.99,8.65-20.88s-3.07-15.3-8.65-20.87Zm-23.42-18.68c-1.96-1.05-4.33-.93-6.17,.31l-25.07,16.82h-17.76c-3.32,0-6,2.69-6,6v32.16c0,3.31,2.68,6,6,6h17.76l25.07,16.82c1.01,.68,2.17,1.02,3.34,1.02,.97,0,1.94-.24,2.83-.71,1.95-1.04,3.17-3.08,3.17-5.29V124.58c0-2.22-1.22-4.25-3.17-5.29Zm-35.42,49.29h-7.58v-20.16h7.58v20.16Zm26.59,12.59l-14.59-9.79v-25.76l14.59-9.79v45.34Zm8.83-61.88c-1.96-1.05-4.33-.93-6.17,.31l-25.07,16.82h-17.76c-3.32,0-6,2.69-6,6v32.16c0,3.31,2.68,6,6,6h17.76l25.07,16.82c1.01,.68,2.17,1.02,3.34,1.02,.97,0,1.94-.24,2.83-.71,1.95-1.04,3.17-3.08,3.17-5.29V124.58c0-2.22-1.22-4.25-3.17-5.29Zm-35.42,49.29h-7.58v-20.16h7.58v20.16Zm26.59,12.59l-14.59-9.79v-25.76l14.59-9.79v45.34Zm32.25-43.2c-2.35-2.34-6.14-2.35-8.49,0-2.34,2.34-2.34,6.14,0,8.48,3.31,3.31,5.14,7.71,5.14,12.39s-1.83,9.09-5.14,12.4c-2.34,2.34-2.34,6.14,0,8.48,1.18,1.17,2.71,1.76,4.25,1.76,1.53,0,3.07-.59,4.24-1.76,5.58-5.58,8.65-12.99,8.65-20.88s-3.07-15.3-8.65-20.87Zm-4.15,255.86v-7.92c0-11.45-9.32-20.77-20.77-20.77s-20.77,9.32-20.77,20.77v7.92c-6.53,1.07-11.53,6.73-11.53,13.55v23.68c0,7.58,6.17,13.75,13.76,13.75h37.08c7.59,0,13.75-6.17,13.75-13.75v-23.68c0-6.82-4.99-12.48-11.52-13.55Zm-29.54-7.92c0-4.84,3.93-8.77,8.77-8.77s8.77,3.93,8.77,8.77v7.72h-17.54v-7.72Zm29.06,45.15c0,.95-.8,1.75-1.75,1.75h-37.08c-.95,0-1.76-.8-1.76-1.75v-23.68c0-.95,.81-1.75,1.76-1.75h37.08c.95,0,1.75,.8,1.75,1.75v23.68Zm-1.75-160.52h-25.61v-7.72c0-4.84,3.93-8.77,8.77-8.77,2.61,0,5.07,1.16,6.75,3.2,2.12,2.55,5.9,2.9,8.45,.78,2.55-2.11,2.9-5.9,.79-8.45-3.98-4.79-9.8-7.53-15.99-7.53-11.45,0-20.77,9.32-20.77,20.77v7.75c-7.34,.28-13.23,6.32-13.23,13.73v23.67c0,7.59,6.17,13.75,13.76,13.75h37.08c7.59,0,13.76-6.16,13.76-13.75v-23.67c0-7.59-6.17-13.76-13.76-13.76Zm1.76,37.43c0,.95-.81,1.75-1.76,1.75h-37.08c-.95,0-1.76-.8-1.76-1.75v-23.67c0-.95,.81-1.76,1.76-1.76h37.08c.95,0,1.76,.81,1.76,1.76v23.67Zm21.53-177.32c-2.35-2.34-6.15-2.34-8.49,0-2.34,2.35-2.34,6.14,0,8.49,5.26,5.26,8.16,12.26,8.16,19.7s-2.9,14.45-8.16,19.71c-2.34,2.34-2.34,6.14,0,8.49,1.17,1.17,2.71,1.75,4.24,1.75,1.54,0,3.07-.58,4.25-1.75,7.53-7.53,11.67-17.55,11.67-28.2s-4.14-20.66-11.67-28.19Zm-23.29,139.89h-25.61v-7.72c0-4.84,3.93-8.77,8.77-8.77,2.61,0,5.07,1.16,6.75,3.2,2.12,2.55,5.9,2.9,8.45,.78,2.55-2.11,2.9-5.9,.79-8.45-3.98-4.79-9.8-7.53-15.99-7.53-11.45,0-20.77,9.32-20.77,20.77v7.75c-7.34,.28-13.23,6.32-13.23,13.73v23.67c0,7.59,6.17,13.75,13.76,13.75h37.08c7.59,0,13.76-6.16,13.76-13.75v-23.67c0-7.59-6.17-13.76-13.76-13.76Zm1.76,37.43c0,.95-.81,1.75-1.76,1.75h-37.08c-.95,0-1.76-.8-1.76-1.75v-23.67c0-.95,.81-1.76,1.76-1.76h37.08c.95,0,1.76,.81,1.76,1.76v23.67Zm.47,85.86v-7.92c0-11.45-9.32-20.77-20.77-20.77s-20.77,9.32-20.77,20.77v7.92c-6.53,1.07-11.53,6.73-11.53,13.55v23.68c0,7.58,6.17,13.75,13.76,13.75h37.08c7.59,0,13.75-6.17,13.75-13.75v-23.68c0-6.82-4.99-12.48-11.52-13.55Zm-29.54-7.92c0-4.84,3.93-8.77,8.77-8.77s8.77,3.93,8.77,8.77v7.72h-17.54v-7.72Zm29.06,45.15c0,.95-.8,1.75-1.75,1.75h-37.08c-.95,0-1.76-.8-1.76-1.75v-23.68c0-.95,.81-1.75,1.76-1.75h37.08c.95,0,1.75,.8,1.75,1.75v23.68Zm21.54-300.41c-2.35-2.34-6.15-2.34-8.49,0-2.34,2.35-2.34,6.14,0,8.49,5.26,5.26,8.16,12.26,8.16,19.7s-2.9,14.45-8.16,19.71c-2.34,2.34-2.34,6.14,0,8.49,1.17,1.17,2.71,1.75,4.24,1.75,1.54,0,3.07-.58,4.25-1.75,7.53-7.53,11.67-17.55,11.67-28.2s-4.14-20.66-11.67-28.19Zm-16.91,7.32c-2.35-2.34-6.14-2.35-8.49,0-2.34,2.34-2.34,6.14,0,8.48,3.31,3.31,5.14,7.71,5.14,12.39s-1.83,9.09-5.14,12.4c-2.34,2.34-2.34,6.14,0,8.48,1.18,1.17,2.71,1.76,4.25,1.76,1.53,0,3.07-.59,4.24-1.76,5.58-5.58,8.65-12.99,8.65-20.88s-3.07-15.3-8.65-20.87Zm-23.42-18.68c-1.96-1.05-4.33-.93-6.17,.31l-25.07,16.82h-17.76c-3.32,0-6,2.69-6,6v32.16c0,3.31,2.68,6,6,6h17.76l25.07,16.82c1.01,.68,2.17,1.02,3.34,1.02,.97,0,1.94-.24,2.83-.71,1.95-1.04,3.17-3.08,3.17-5.29V124.58c0-2.22-1.22-4.25-3.17-5.29Zm-35.42,49.29h-7.58v-20.16h7.58v20.16Zm26.59,12.59l-14.59-9.79v-25.76l14.59-9.79v45.34Zm108.76-66.94c-1.48-10.65-9.66-18.52-20.36-19.59-53.07-5.29-109.07-5.29-162.14,0-10.7,1.07-18.88,8.94-20.36,19.59-7.35,52.85-11.08,109.15-11.08,167.36s3.73,114.51,11.08,167.36c1.48,10.65,9.66,18.52,20.36,19.59,26.54,2.64,53.81,3.98,81.07,3.98s54.53-1.34,81.07-3.98c10.7-1.07,18.88-8.94,20.36-19.59,7.35-52.85,11.08-109.16,11.08-167.36s-3.73-114.51-11.08-167.36Zm-190.98,1.65c.73-5.21,4.43-8.78,9.67-9.3,26.14-2.6,53.02-3.92,79.88-3.92s53.74,1.32,79.88,3.92c5.24,.52,8.94,4.09,9.67,9.3,2.2,15.84,4.07,31.99,5.61,48.41,1.54,16.43,2.75,33.13,3.63,50.05H157.21c1.76-33.85,4.84-66.79,9.24-98.46Zm179.1,331.42c-.73,5.21-4.43,8.77-9.67,9.29-52.28,5.21-107.48,5.21-159.76,0-5.24-.52-8.94-4.08-9.67-9.29-4.38-31.49-7.45-64.23-9.2-97.87h197.5c-1.75,33.65-4.82,66.38-9.2,97.87Zm9.78-109.87H156.67c-.78-18.38-1.18-37-1.18-55.84,0-18.63,.39-37.06,1.16-55.25h198.7c.77,18.19,1.16,36.62,1.16,55.25,0,18.84-.4,37.46-1.18,55.84Zm-65.99-206.78c-2.34,2.35-2.34,6.14,0,8.49,5.26,5.26,8.16,12.26,8.16,19.7s-2.9,14.45-8.16,19.71c-2.34,2.34-2.34,6.14,0,8.49,1.17,1.17,2.71,1.75,4.24,1.75,1.54,0,3.07-.58,4.25-1.75,7.53-7.53,11.67-17.55,11.67-28.2s-4.14-20.66-11.67-28.19c-2.35-2.34-6.15-2.34-8.49,0Zm-14.8,139.89h-25.61v-7.72c0-4.84,3.93-8.77,8.77-8.77,2.61,0,5.07,1.16,6.75,3.2,2.12,2.55,5.9,2.9,8.45,.78,2.55-2.11,2.9-5.9,.79-8.45-3.98-4.79-9.8-7.53-15.99-7.53-11.45,0-20.77,9.32-20.77,20.77v7.75c-7.34,.28-13.23,6.32-13.23,13.73v23.67c0,7.59,6.17,13.75,13.76,13.75h37.08c7.59,0,13.76-6.16,13.76-13.75v-23.67c0-7.59-6.17-13.76-13.76-13.76Zm1.76,37.43c0,.95-.81,1.75-1.76,1.75h-37.08c-.95,0-1.76-.8-1.76-1.75v-23.67c0-.95,.81-1.76,1.76-1.76h37.08c.95,0,1.76,.81,1.76,1.76v23.67Zm-38.84,136.84h37.08c7.59,0,13.75-6.17,13.75-13.75v-23.68c0-6.82-4.99-12.48-11.52-13.55v-7.92c0-11.45-9.32-20.77-20.77-20.77s-20.77,9.32-20.77,20.77v7.92c-6.53,1.07-11.53,6.73-11.53,13.55v23.68c0,7.58,6.17,13.75,13.76,13.75Zm9.77-58.9c0-4.84,3.93-8.77,8.77-8.77s8.77,3.93,8.77,8.77v7.72h-17.54v-7.72Zm-11.53,21.47c0-.95,.81-1.75,1.76-1.75h37.08c.95,0,1.75,.8,1.75,1.75v23.68c0,.95-.8,1.75-1.75,1.75h-37.08c-.95,0-1.76-.8-1.76-1.75v-23.68Zm45.22-269.41c-2.35-2.34-6.14-2.35-8.49,0-2.34,2.34-2.34,6.14,0,8.48,3.31,3.31,5.14,7.71,5.14,12.39s-1.83,9.09-5.14,12.4c-2.34,2.34-2.34,6.14,0,8.48,1.18,1.17,2.71,1.76,4.25,1.76,1.53,0,3.07-.59,4.24-1.76,5.58-5.58,8.65-12.99,8.65-20.88s-3.07-15.3-8.65-20.87Zm-23.42-18.68c-1.96-1.05-4.33-.93-6.17,.31l-25.07,16.82h-17.76c-3.32,0-6,2.69-6,6v32.16c0,3.31,2.68,6,6,6h17.76l25.07,16.82c1.01,.68,2.17,1.02,3.34,1.02,.97,0,1.94-.24,2.83-.71,1.95-1.04,3.17-3.08,3.17-5.29V124.58c0-2.22-1.22-4.25-3.17-5.29Zm-35.42,49.29h-7.58v-20.16h7.58v20.16Zm26.59,12.59l-14.59-9.79v-25.76l14.59-9.79v45.34Zm8.83-61.88c-1.96-1.05-4.33-.93-6.17,.31l-25.07,16.82h-17.76c-3.32,0-6,2.69-6,6v32.16c0,3.31,2.68,6,6,6h17.76l25.07,16.82c1.01,.68,2.17,1.02,3.34,1.02,.97,0,1.94-.24,2.83-.71,1.95-1.04,3.17-3.08,3.17-5.29V124.58c0-2.22-1.22-4.25-3.17-5.29Zm-35.42,49.29h-7.58v-20.16h7.58v20.16Zm26.59,12.59l-14.59-9.79v-25.76l14.59-9.79v45.34Zm32.25-43.2c-2.35-2.34-6.14-2.35-8.49,0-2.34,2.34-2.34,6.14,0,8.48,3.31,3.31,5.14,7.71,5.14,12.39s-1.83,9.09-5.14,12.4c-2.34,2.34-2.34,6.14,0,8.48,1.18,1.17,2.71,1.76,4.25,1.76,1.53,0,3.07-.59,4.24-1.76,5.58-5.58,8.65-12.99,8.65-20.88s-3.07-15.3-8.65-20.87Zm16.91-7.32c-2.35-2.34-6.15-2.34-8.49,0-2.34,2.35-2.34,6.14,0,8.49,5.26,5.26,8.16,12.26,8.16,19.7s-2.9,14.45-8.16,19.71c-2.34,2.34-2.34,6.14,0,8.49,1.17,1.17,2.71,1.75,4.24,1.75,1.54,0,3.07-.58,4.25-1.75,7.53-7.53,11.67-17.55,11.67-28.2s-4.14-20.66-11.67-28.19Zm-21.06,263.18v-7.92c0-11.45-9.32-20.77-20.77-20.77s-20.77,9.32-20.77,20.77v7.92c-6.53,1.07-11.53,6.73-11.53,13.55v23.68c0,7.58,6.17,13.75,13.76,13.75h37.08c7.59,0,13.75-6.17,13.75-13.75v-23.68c0-6.82-4.99-12.48-11.52-13.55Zm-29.54-7.92c0-4.84,3.93-8.77,8.77-8.77s8.77,3.93,8.77,8.77v7.72h-17.54v-7.72Zm29.06,45.15c0,.95-.8,1.75-1.75,1.75h-37.08c-.95,0-1.76-.8-1.76-1.75v-23.68c0-.95,.81-1.75,1.76-1.75h37.08c.95,0,1.75,.8,1.75,1.75v23.68Zm-1.75-160.52h-25.61v-7.72c0-4.84,3.93-8.77,8.77-8.77,2.61,0,5.07,1.16,6.75,3.2,2.12,2.55,5.9,2.9,8.45,.78,2.55-2.11,2.9-5.9,.79-8.45-3.98-4.79-9.8-7.53-15.99-7.53-11.45,0-20.77,9.32-20.77,20.77v7.75c-7.34,.28-13.23,6.32-13.23,13.73v23.67c0,7.59,6.17,13.75,13.76,13.75h37.08c7.59,0,13.76-6.16,13.76-13.75v-23.67c0-7.59-6.17-13.76-13.76-13.76Zm1.76,37.43c0,.95-.81,1.75-1.76,1.75h-37.08c-.95,0-1.76-.8-1.76-1.75v-23.67c0-.95,.81-1.76,1.76-1.76h37.08c.95,0,1.76,.81,1.76,1.76v23.67ZM322.01,37.77c-43.8-4.36-88.22-4.36-132.02,0-3.3,.33-5.71,3.27-5.38,6.57,.33,3.3,3.26,5.7,6.57,5.37,43.01-4.28,86.63-4.28,129.64,0,.21,.02,.41,.03,.61,.03,3.04,0,5.65-2.31,5.96-5.4,.33-3.3-2.08-6.24-5.38-6.57Zm-24.18,92.88c-2.35-2.34-6.15-2.34-8.49,0-2.34,2.35-2.34,6.14,0,8.49,5.26,5.26,8.16,12.26,8.16,19.7s-2.9,14.45-8.16,19.71c-2.34,2.34-2.34,6.14,0,8.49,1.17,1.17,2.71,1.75,4.24,1.75,1.54,0,3.07-.58,4.25-1.75,7.53-7.53,11.67-17.55,11.67-28.2s-4.14-20.66-11.67-28.19Zm-23.29,139.89h-25.61v-7.72c0-4.84,3.93-8.77,8.77-8.77,2.61,0,5.07,1.16,6.75,3.2,2.12,2.55,5.9,2.9,8.45,.78,2.55-2.11,2.9-5.9,.79-8.45-3.98-4.79-9.8-7.53-15.99-7.53-11.45,0-20.77,9.32-20.77,20.77v7.75c-7.34,.28-13.23,6.32-13.23,13.73v23.67c0,7.59,6.17,13.75,13.76,13.75h37.08c7.59,0,13.76-6.16,13.76-13.75v-23.67c0-7.59-6.17-13.76-13.76-13.76Zm1.76,37.43c0,.95-.81,1.75-1.76,1.75h-37.08c-.95,0-1.76-.8-1.76-1.75v-23.67c0-.95,.81-1.76,1.76-1.76h37.08c.95,0,1.76,.81,1.76,1.76v23.67Zm.47,85.86v-7.92c0-11.45-9.32-20.77-20.77-20.77s-20.77,9.32-20.77,20.77v7.92c-6.53,1.07-11.53,6.73-11.53,13.55v23.68c0,7.58,6.17,13.75,13.76,13.75h37.08c7.59,0,13.75-6.17,13.75-13.75v-23.68c0-6.82-4.99-12.48-11.52-13.55Zm-29.54-7.92c0-4.84,3.93-8.77,8.77-8.77s8.77,3.93,8.77,8.77v7.72h-17.54v-7.72Zm29.06,45.15c0,.95-.8,1.75-1.75,1.75h-37.08c-.95,0-1.76-.8-1.76-1.75v-23.68c0-.95,.81-1.75,1.76-1.75h37.08c.95,0,1.75,.8,1.75,1.75v23.68Zm4.63-293.09c-2.35-2.34-6.14-2.35-8.49,0-2.34,2.34-2.34,6.14,0,8.48,3.31,3.31,5.14,7.71,5.14,12.39s-1.83,9.09-5.14,12.4c-2.34,2.34-2.34,6.14,0,8.48,1.18,1.17,2.71,1.76,4.25,1.76,1.53,0,3.07-.59,4.24-1.76,5.58-5.58,8.65-12.99,8.65-20.88s-3.07-15.3-8.65-20.87Zm-23.42-18.68c-1.96-1.05-4.33-.93-6.17,.31l-25.07,16.82h-17.76c-3.32,0-6,2.69-6,6v32.16c0,3.31,2.68,6,6,6h17.76l25.07,16.82c1.01,.68,2.17,1.02,3.34,1.02,.97,0,1.94-.24,2.83-.71,1.95-1.04,3.17-3.08,3.17-5.29V124.58c0-2.22-1.22-4.25-3.17-5.29Zm-35.42,49.29h-7.58v-20.16h7.58v20.16Zm26.59,12.59l-14.59-9.79v-25.76l14.59-9.79v45.34Zm28.1,212.66v-7.92c0-11.45-9.32-20.77-20.77-20.77s-20.77,9.32-20.77,20.77v7.92c-6.53,1.07-11.53,6.73-11.53,13.55v23.68c0,7.58,6.17,13.75,13.76,13.75h37.08c7.59,0,13.75-6.17,13.75-13.75v-23.68c0-6.82-4.99-12.48-11.52-13.55Zm-29.54-7.92c0-4.84,3.93-8.77,8.77-8.77s8.77,3.93,8.77,8.77v7.72h-17.54v-7.72Zm29.06,45.15c0,.95-.8,1.75-1.75,1.75h-37.08c-.95,0-1.76-.8-1.76-1.75v-23.68c0-.95,.81-1.75,1.76-1.75h37.08c.95,0,1.75,.8,1.75,1.75v23.68Zm-1.75-160.52h-25.61v-7.72c0-4.84,3.93-8.77,8.77-8.77,2.61,0,5.07,1.16,6.75,3.2,2.12,2.55,5.9,2.9,8.45,.78,2.55-2.11,2.9-5.9,.79-8.45-3.98-4.79-9.8-7.53-15.99-7.53-11.45,0-20.77,9.32-20.77,20.77v7.75c-7.34,.28-13.23,6.32-13.23,13.73v23.67c0,7.59,6.17,13.75,13.76,13.75h37.08c7.59,0,13.76-6.16,13.76-13.75v-23.67c0-7.59-6.17-13.76-13.76-13.76Zm1.76,37.43c0,.95-.81,1.75-1.76,1.75h-37.08c-.95,0-1.76-.8-1.76-1.75v-23.67c0-.95,.81-1.76,1.76-1.76h37.08c.95,0,1.76,.81,1.76,1.76v23.67Z"></path>
  <path fill="#bddbff" d="M374.75,111.82c-2.62-18.8-17.07-32.69-35.95-34.57-27.11-2.7-54.96-4.07-82.8-4.07s-55.69,1.37-82.8,4.07c-18.88,1.88-33.33,15.77-35.95,34.57-7.46,53.64-11.24,110.76-11.24,169.77s3.78,116.13,11.24,169.77c2.62,18.8,17.06,32.69,35.95,34.57,54.21,5.4,111.39,5.4,165.6,0,18.89-1.88,33.33-15.77,35.95-34.57,7.46-53.64,11.24-110.76,11.24-169.77s-3.78-116.13-11.24-169.77Zm-17.32,337.13c-1.48,10.65-9.66,18.52-20.36,19.59-26.54,2.64-53.81,3.98-81.07,3.98s-54.53-1.34-81.07-3.98c-10.7-1.07-18.88-8.94-20.36-19.59-7.35-52.85-11.08-109.16-11.08-167.36s3.73-114.51,11.08-167.36c1.48-10.65,9.66-18.52,20.36-19.59,53.07-5.29,109.07-5.29,162.14,0,10.7,1.07,18.88,8.94,20.36,19.59,7.35,52.85,11.08,109.15,11.08,167.36s-3.73,114.51-11.08,167.36Z"></path>
  <path fill="#bddbff" d="M355.35,226.34H156.65c-.77,18.19-1.16,36.62-1.16,55.25,0,18.84,.4,37.46,1.18,55.84h198.66c.78-18.38,1.18-37,1.18-55.84,0-18.63-.39-37.06-1.16-55.25Zm-67.05,81.63c0,7.59-6.17,13.75-13.76,13.75h-37.08c-7.59,0-13.76-6.16-13.76-13.75v-23.67c0-7.41,5.89-13.45,13.23-13.73v-7.75c0-11.45,9.32-20.77,20.77-20.77,6.19,0,12.01,2.74,15.99,7.53,2.11,2.55,1.76,6.34-.79,8.45-2.55,2.12-6.33,1.77-8.45-.78-1.68-2.04-4.14-3.2-6.75-3.2-4.84,0-8.77,3.93-8.77,8.77v7.72h25.61c7.59,0,13.76,6.17,13.76,13.76v23.67Z"></path>
  <path fill="#bddbff" d="M276.3,284.3v23.67c0,.95-.81,1.75-1.76,1.75h-37.08c-.95,0-1.76-.8-1.76-1.75v-23.67c0-.95,.81-1.76,1.76-1.76h37.08c.95,0,1.76,.81,1.76,1.76Z"></path>
</svg>
